<svg xmlns="http://www.w3.org/2000/svg" xmlns:xlink="http://www.w3.org/1999/xlink" xmlns:lucid="lucid" width="1535" height="1022"><g transform="translate(-171 -128)" lucid:page-tab-id="0_0"><path d="M1195.43 147.42a6 6 0 0 1 6-6h148a6 6 0 0 1 6 6v45.33a6 6 0 0 1-6 6h-148a6 6 0 0 1-6-6z" stroke="#5e5e5e" stroke-width="3" fill="#fff"/><use xlink:href="#a" transform="matrix(1,0,0,1,1207.4330708661416,153.4173228346456) translate(25.870370370370374 22.02777777777778)"/><path d="M1195.43 490.08a6 6 0 0 1 6-6h148a6 6 0 0 1 6 6v45.34a6 6 0 0 1-6 6h-148a6 6 0 0 1-6-6z" stroke="#5e5e5e" stroke-width="3" fill="#fff"/><use xlink:href="#b" transform="matrix(1,0,0,1,1207.4330708661416,496.08398950131215) translate(29.049382716049386 22.02777777777778)"/><path d="M1270.63 285.02a8 8 0 0 1 9.6 0l70.4 52.8a4.5 4.5 0 0 1 0 7.2l-70.4 52.8a8 8 0 0 1-9.6 0l-70.4-52.8a4.5 4.5 0 0 1 0-7.2z" stroke="#5e5e5e" stroke-width="3" fill="#fff"/><use xlink:href="#c" transform="matrix(1,0,0,1,1200.4330708661416,286.41732283464546) translate(25.900061728395066 59.02777777777778)"/><path d="M1275.43 220.2v43.2" stroke="#5e5e5e" stroke-width="2" fill="none"/><path d="M1265.43 220.2h20M1275.43 200.2v20" stroke="#5e5e5e" stroke-width="2" fill="#fff"/><path d="M1275.43 278.68l-4.63-14.27h9.27z" stroke="#5e5e5e" stroke-width="2" fill="#5e5e5e"/><path d="M1275.43 401.92v60.7" stroke="#5e5e5e" stroke-width="2" fill="none"/><path d="M1276.43 401.95h-2v-1.1l1 .07 1-.06" fill="#5e5e5e"/><path d="M1265.43 482.17l10-20 10 20" stroke="#5e5e5e" stroke-width="2" fill="#fff" fill-opacity="0"/><path d="M1275.43 482.17v-20M1285.43 462.17h-20" stroke="#5e5e5e" stroke-width="2" fill="#fff"/><path d="M1270.63 655.02a8 8 0 0 1 9.6 0l70.4 52.8a4.5 4.5 0 0 1 0 7.2l-70.4 52.8a8 8 0 0 1-9.6 0l-70.4-52.8a4.5 4.5 0 0 1 0-7.2z" stroke="#5e5e5e" stroke-width="3" fill="#fff"/><use xlink:href="#d" transform="matrix(1,0,0,1,1200.4330708661416,656.4173228346455) translate(28.616111111111103 59.02777777777778)"/><path d="M1275.43 562.88v70.53" stroke="#5e5e5e" stroke-width="2" fill="none"/><path d="M1265.43 562.88h20M1275.43 542.88v20" stroke="#5e5e5e" stroke-width="2" fill="#fff"/><path d="M1275.43 648.68l-4.63-14.27h9.27z" stroke="#5e5e5e" stroke-width="2" fill="#5e5e5e"/><path d="M1335.43 825.08a6 6 0 0 1 6-6h188a6 6 0 0 1 6 6v45.34a6 6 0 0 1-6 6h-188a6 6 0 0 1-6-6z" stroke="#5e5e5e" stroke-width="3" fill="#fff"/><use xlink:href="#e" transform="matrix(1,0,0,1,1347.4330708661416,831.0839895013121) translate(5.438271604938279 22.02777777777778)"/><use xlink:href="#f" transform="matrix(1,0,0,1,1347.4330708661416,831.0839895013121) translate(89.51234567901234 22.02777777777778)"/><path d="M1060 866a6 6 0 0 1 6-6h188a6 6 0 0 1 6 6v48a6 6 0 0 1-6 6h-188a6 6 0 0 1-6-6z" stroke="#5e5e5e" stroke-width="3" fill="#fff"/><use xlink:href="#e" transform="matrix(1,0,0,1,1072,872) translate(6.672839506172849 22.27777777777778)"/><use xlink:href="#g" transform="matrix(1,0,0,1,1072,872) translate(90.74691358024691 22.27777777777778)"/><path d="M1175.43 966a6 6 0 0 1 6-6h188a6 6 0 0 1 6 6v48a6 6 0 0 1-6 6h-188a6 6 0 0 1-6-6z" stroke="#5e5e5e" stroke-width="3" fill="#fff"/><use xlink:href="#e" transform="matrix(1,0,0,1,1187.4330708661416,972) translate(21.48765432098766 22.27777777777778)"/><use xlink:href="#h" transform="matrix(1,0,0,1,1187.4330708661416,972) translate(105.56172839506172 22.27777777777778)"/><path d="M1275.43 771.92v166.62" stroke="#5e5e5e" stroke-width="2" fill="none"/><path d="M1276.43 771.95h-2v-1.1l1 .07 1-.06" fill="#5e5e5e"/><path d="M1285.43 938.54h-20M1275.43 958.54v-20" stroke="#5e5e5e" stroke-width="2" fill="#fff"/><path d="M1195.93 711.42H1166a6 6 0 0 0-6 6v121.12" stroke="#5e5e5e" stroke-width="2" fill="none"/><path d="M1196.93 711.42l.1 1h-1.13v-2h1.12" fill="#5e5e5e"/><path d="M1170 838.54h-20M1160 858.54v-20" stroke="#5e5e5e" stroke-width="2" fill="#fff"/><path d="M1354.94 711.42h74.5a6 6 0 0 1 6 6v80.2" stroke="#5e5e5e" stroke-width="2" fill="none"/><path d="M1354.97 712.42h-1.12l.1-1-.1-1h1.12" fill="#5e5e5e"/><path d="M1445.43 797.62h-20M1435.43 817.62v-20" stroke="#5e5e5e" stroke-width="2" fill="#fff"/><path d="M1495.43 938.67a6 6 0 0 1 6-6h188a6 6 0 0 1 6 6V984a6 6 0 0 1-6 6h-188a6 6 0 0 1-6-6z" stroke="#5e5e5e" stroke-width="3" fill="#fff"/><use xlink:href="#i" transform="matrix(1,0,0,1,1507.4330708661416,944.6666666666666) translate(40.68518518518519 22.02777777777778)"/><path d="M1590.63 663.6a8 8 0 0 1 9.6 0l70.4 52.8a4.5 4.5 0 0 1 0 7.2l-70.4 52.8a8 8 0 0 1-9.6 0l-70.4-52.8a4.5 4.5 0 0 1 0-7.2z" stroke="#5e5e5e" stroke-width="3" fill="#fff"/><use xlink:href="#j" transform="matrix(1,0,0,1,1520.4330708661416,665) translate(63.7087037037037 59.02777777777778)"/><path d="M1375.72 512.75h213.7a6 6 0 0 1 6 6V642" stroke="#5e5e5e" stroke-width="2" fill="none"/><path d="M1357.34 502.75l20 10-20 10" stroke="#5e5e5e" stroke-width="2" fill="#fff" fill-opacity="0"/><path d="M1357.34 512.75h20" stroke="#5e5e5e" stroke-width="2" fill="#fff"/><path d="M1595.43 657.26L1590.8 643h9.27z" stroke="#5e5e5e" stroke-width="2" fill="#5e5e5e"/><path d="M1595.43 780.5v130.7" stroke="#5e5e5e" stroke-width="2" fill="none"/><path d="M1595.43 779.5l1-.06v1.1h-2v-1.1" fill="#5e5e5e"/><path d="M1605.43 911.2h-20M1595.43 931.2v-20" stroke="#5e5e5e" stroke-width="2" fill="#fff"/><path d="M675.43 490.08a6 6 0 0 1 6-6h188a6 6 0 0 1 6 6v45.34a6 6 0 0 1-6 6h-188a6 6 0 0 1-6-6z" stroke="#5e5e5e" stroke-width="3" fill="#fff"/><use xlink:href="#k" transform="matrix(1,0,0,1,687.4330708661416,496.08398950131226) translate(52.166666666666664 22.02777777777778)"/><path d="M1021.87 454.93a8 8 0 0 1 9.6 0l70.4 52.8a4.5 4.5 0 0 1 0 7.2l-70.4 52.8a8 8 0 0 1-9.6 0l-70.4-52.8a4.5 4.5 0 0 1 0-7.2z" stroke="#5e5e5e" stroke-width="3" fill="#fff"/><use xlink:href="#l" transform="matrix(1,0,0,1,951.666102727912,456.33333333333314) translate(62.72104938271605 59.02777777777778)"/><path d="M896.9 512.75h15.67a.04.04 0 0 0 .04-.04.04.04 0 0 1 .05-.03h34.68" stroke="#5e5e5e" stroke-width="2" fill="none"/><path d="M877.34 502.75l20 10-20 10" stroke="#5e5e5e" stroke-width="2" fill="#fff" fill-opacity="0"/><path d="M877.34 512.75h20M897.34 522.75v-20" stroke="#5e5e5e" stroke-width="2" fill="#fff"/><path d="M948.26 512.44l.3 1.07.1.17h-1.36v-2h.9" fill="#5e5e5e"/><path d="M1106.17 511.33h43.36a.04.04 0 0 1 .04.05.04.04 0 0 0 .04.04h24.37" stroke="#5e5e5e" stroke-width="2" fill="none"/><path d="M1106.2 512.33h-1.12l.1-1-.1-1h1.12" fill="#5e5e5e"/><path d="M1193.52 521.42l-20-10 20-10" stroke="#5e5e5e" stroke-width="2" fill="#fff" fill-opacity="0"/><path d="M1193.52 511.42h-20M1173.52 501.42v20" stroke="#5e5e5e" stroke-width="2" fill="#fff"/><path d="M415.43 317.33a6 6 0 0 1 6-6h188a6 6 0 0 1 6 6v45.34a6 6 0 0 1-6 6h-188a6 6 0 0 1-6-6z" stroke="#5e5e5e" stroke-width="3" fill="#fff"/><use xlink:href="#m" transform="matrix(1,0,0,1,427.43307086614163,323.3333333333332) translate(26.48765432098766 22.02777777777778)"/><path d="M770.63 283.6a8 8 0 0 1 9.6 0l70.4 52.8a4.5 4.5 0 0 1 0 7.2l-70.4 52.8a8 8 0 0 1-9.6 0l-70.4-52.8a4.5 4.5 0 0 1 0-7.2z" stroke="#5e5e5e" stroke-width="3" fill="#fff"/><use xlink:href="#n" transform="matrix(1,0,0,1,700.4330708661416,284.9999999999999) translate(39.29512345679012 59.02777777777778)"/><path d="M636.9 340H678.42" stroke="#5e5e5e" stroke-width="2" fill="none"/><path d="M617.34 330l20 10-20 10" stroke="#5e5e5e" stroke-width="2" fill="#fff" fill-opacity="0"/><path d="M617.34 340h20M637.34 350v-20" stroke="#5e5e5e" stroke-width="2" fill="#fff"/><path d="M693.7 340l-14.28 4.64v-9.28z" stroke="#5e5e5e" stroke-width="2" fill="#5e5e5e"/><path d="M775.43 400.5v62.12" stroke="#5e5e5e" stroke-width="2" fill="none"/><path d="M775.43 399.5l1-.06v1.1h-2v-1.1" fill="#5e5e5e"/><path d="M765.43 482.17l10-20 10 20" stroke="#5e5e5e" stroke-width="2" fill="#fff" fill-opacity="0"/><path d="M775.43 482.17v-20M785.43 462.17h-20" stroke="#5e5e5e" stroke-width="2" fill="#fff"/><path d="M415.43 146a6 6 0 0 1 6-6h188a6 6 0 0 1 6 6v45.33a6 6 0 0 1-6 6h-188a6 6 0 0 1-6-6z" stroke="#5e5e5e" stroke-width="3" fill="#fff"/><use xlink:href="#o" transform="matrix(1,0,0,1,427.43307086614163,152) translate(57.6604938271605 22.02777777777778)"/><path d="M415.43 490.08a6 6 0 0 1 6-6h188a6 6 0 0 1 6 6v45.34a6 6 0 0 1-6 6h-188a6 6 0 0 1-6-6z" stroke="#5e5e5e" stroke-width="3" fill="#fff"/><use xlink:href="#p" transform="matrix(1,0,0,1,427.43307086614163,496.08398950131226) translate(31.827160493827165 22.02777777777778)"/><use xlink:href="#q" transform="matrix(1,0,0,1,427.43307086614163,496.08398950131226) translate(68 22.02777777777778)"/><path d="M515.43 218.8v71.07" stroke="#5e5e5e" stroke-width="2" fill="none"/><path d="M505.43 218.8h20M515.43 198.8v20M525.43 289.87h-20M515.43 309.87v-20" stroke="#5e5e5e" stroke-width="2" fill="#fff"/><path d="M515.43 390.13v72.5" stroke="#5e5e5e" stroke-width="2" fill="none"/><path d="M505.43 390.13h20M515.43 370.13v20M525.43 462.62h-20M515.43 482.62v-20" stroke="#5e5e5e" stroke-width="2" fill="#fff"/><path d="M675.43 887.33a6 6 0 0 1 6-6h188a6 6 0 0 1 6 6v45.34a6 6 0 0 1-6 6h-188a6 6 0 0 1-6-6z" stroke="#5e5e5e" stroke-width="3" fill="#fff"/><use xlink:href="#r" transform="matrix(1,0,0,1,687.4330708661416,893.333333333333) translate(14.327160493827165 22.02777777777778)"/><use xlink:href="#s" transform="matrix(1,0,0,1,687.4330708661416,893.333333333333) translate(80.9320987654321 22.02777777777778)"/><path d="M770.63 653.6a8 8 0 0 1 9.6 0l70.4 52.8a4.5 4.5 0 0 1 0 7.2l-70.4 52.8a8 8 0 0 1-9.6 0l-70.4-52.8a4.5 4.5 0 0 1 0-7.2z" stroke="#5e5e5e" stroke-width="3" fill="#fff"/><use xlink:href="#t" transform="matrix(1,0,0,1,700.4330708661416,654.9999999999999) translate(6.666666666666671 59.44444444444444)"/><path d="M775.43 561.7V632" stroke="#5e5e5e" stroke-width="2" fill="none"/><path d="M785.43 543.33l-10 20-10-20" stroke="#5e5e5e" stroke-width="2" fill="#fff" fill-opacity="0"/><path d="M775.43 543.33v20" stroke="#5e5e5e" stroke-width="2" fill="#fff"/><path d="M775.43 647.26L770.8 633h9.27z" stroke="#5e5e5e" stroke-width="2" fill="#5e5e5e"/><path d="M775.43 770.5v89.37" stroke="#5e5e5e" stroke-width="2" fill="none"/><path d="M776.43 770.53h-2v-1.1l1 .07 1-.06" fill="#5e5e5e"/><path d="M785.43 859.87h-20M775.43 879.87v-20" stroke="#5e5e5e" stroke-width="2" fill="#fff"/><path d="M926.67 1058.75a6 6 0 0 1 6-6h188a6 6 0 0 1 6 6v45.33a6 6 0 0 1-6 6h-188a6 6 0 0 1-6-6z" stroke="#5e5e5e" stroke-width="3" fill="#fff"/><use xlink:href="#u" transform="matrix(1,0,0,1,938.666102727912,1064.7506561679788) translate(42.660493827160494 22.02777777777778)"/><path d="M1021.87 655.02a8 8 0 0 1 9.6 0l70.4 52.8a4.5 4.5 0 0 1 0 7.2l-70.4 52.8a8 8 0 0 1-9.6 0l-70.4-52.8a4.5 4.5 0 0 1 0-7.2z" stroke="#5e5e5e" stroke-width="3" fill="#fff"/><use xlink:href="#c" transform="matrix(1,0,0,1,951.666102727912,656.4173228346455) translate(25.900061728395066 59.02777777777778)"/><path d="M1026.67 1031.3V789.4" stroke="#5e5e5e" stroke-width="2" fill="none"/><path d="M1036.67 1031.3h-20M1026.67 1051.3v-20" stroke="#5e5e5e" stroke-width="2" fill="#fff"/><path d="M1026.67 774.16l4.63 14.26h-9.27z" stroke="#5e5e5e" stroke-width="2" fill="#5e5e5e"/><path d="M1021.72 596.46l1.1.27 1.03.42.93.57.84.72.7.83.6.94.4 1.02.26 1.07.1 1.05v47.56h-2v-47.47l-.08-.82-.18-.76-.3-.72-.4-.67-.52-.6-.6-.5-.67-.42-.72-.3-.7-.17-83.22-.03v-2m-108.44-4.23l.17.73.3.73.42.66.5.6.6.5.68.42.72.3.77.18.8.07 82.35.02v2l-82.42-.03-1.06-.1-1.07-.25-1-.42-.95-.58-.83-.7-.72-.85-.57-.93-.42-1.02-.26-1.1-.07-10.58 2-.02" fill="#5e5e5e"/><path d="M1027.67 651.98l-1-.07-1 .08v-1.1h2" fill="#5e5e5e"/><path d="M838.77 543.3l-10 20-10-20" fill="#fff" fill-opacity="0"/><path d="M839.66 543.75l-10.9 21.8-10.9-21.8 1.8-.9 9.1 18.22 9.1-18.2" fill="#5e5e5e"/><path fill="#fff"/><path d="M829.77 563.3h-2v-20h2" fill="#5e5e5e"/><path d="M838.77 573.3l-.5 3.17-1.43 2.74-2.17 2.18-2.74 1.42-3.16.5-3.16-.5-2.74-1.42-2.16-2.17-1.42-2.73-.5-3.16.5-3.15 1.42-2.75 2.16-2.16 2.75-1.42 3.17-.5 3.16.5 2.74 1.42 2.17 2.16 1.42 2.75.5 3.16" fill="#fff"/><path d="M832.24 562.85l3.03 1.57 2.38 2.38 1.57 3.03.53 3.32-.98.16.98.17-.53 3.3-1.57 3.04-2.38 2.4-3.03 1.56-3.47.56-3.48-.56-3.04-1.57-2.38-2.4-1.56-3.02-.57-3.47.57-3.47 1.56-3.03 2.38-2.38 3.03-1.57 3.47-.56m-2.85 2.48l-2.46 1.27-1.95 1.95-1.26 2.46-.46 2.85.46 2.85 1.27 2.47 1.96 1.94 2.46 1.28 2.85.45 2.84-.46 2.48-1.28 1.94-1.94 1.28-2.47.45-2.84-.45-2.84-1.28-2.46-1.94-1.95-2.47-1.27-2.83-.46" fill="#5e5e5e"/><use xlink:href="#v" transform="matrix(1,0,0,1,917.148634198503,586.7202986755318) translate(0 14.222222222222223)"/><path d="M1115.86 598.45l-84 .03-.74.18-.72.3-.67.4-.6.5-.5.6-.42.68-.3.72-.17.77-.06.82v47.46h-2v-47.53l.08-1.06.26-1.06.43-1 .57-.95.7-.84.85-.72.94-.57 1-.42 1.1-.27 84.26-.03m119.24-34.72l-.08 30.74-.26 1.1-.42 1.02-.58.92-.7.84-.85.7-.92.6-1.02.4-1.07.26-1.06.1-83.24.02v-2l83.16-.03.82-.06.76-.18.73-.3.67-.4.6-.52.5-.6.4-.66.3-.73.18-.72.08-30.5" fill="#5e5e5e"/><path d="M1027.67 651.98l-1-.07-1 .08v-1.1h2" fill="#5e5e5e"/><path d="M1244.1 543.35l-10 20-10-20" fill="#fff" fill-opacity="0"/><path d="M1245 543.8l-10.9 21.78-10.9-21.78 1.8-.9 9.1 18.2 9.1-18.2" fill="#5e5e5e"/><path fill="#fff"/><path d="M1235.1 563.35h-2v-20h2" fill="#5e5e5e"/><use xlink:href="#w" transform="matrix(1,0,0,1,1115.8637776238745,586.7409999050551) translate(0 14.222222222222223)"/><path d="M1127.86 1054.26l5.47-2.83 4.4-1.48 3.32-.56 2.65-.04 2.24.32 1.97.6 1.8.88 1.72 1.18 1.66 1.6 1.64 2.13 1.62 2.97 1.53 4.26 1.2 6.23.36 6.55-.77 10.06-1.98 8.53-2.38 5.95-2.35 3.96-2.2 2.68-2.08 1.84-2 1.3-1.14.5" stroke="#5e5e5e" stroke-width="2" fill="none"/><path d="M1128.34 1055.14l-.88.46-.1-.26-.62-1-.37-.43 1.05-.54" fill="#5e5e5e"/><path d="M1130.17 1108.62l14.8-2.35-1.44 9.15z" stroke="#5e5e5e" stroke-width="2" fill="#5e5e5e"/><path d="M415.43 886a6 6 0 0 1 6-6h188a6 6 0 0 1 6 6v45.33a6 6 0 0 1-6 6h-188a6 6 0 0 1-6-6z" stroke="#5e5e5e" stroke-width="3" fill="#fff"/><use xlink:href="#x" transform="matrix(1,0,0,1,427.43307086614163,892) translate(20.006172839506178 22.02777777777778)"/><path d="M510.63 653.6a8 8 0 0 1 9.6 0l70.4 52.8a4.5 4.5 0 0 1 0 7.2l-70.4 52.8a8 8 0 0 1-9.6 0l-70.4-52.8a4.5 4.5 0 0 1 0-7.2z" stroke="#5e5e5e" stroke-width="3" fill="#fff"/><use xlink:href="#y" transform="matrix(1,0,0,1,440.43307086614163,654.9999999999999) translate(18.276604938271596 59.02777777777778)"/><path d="M515.43 858.54V788" stroke="#5e5e5e" stroke-width="2" fill="none"/><path d="M525.43 858.54h-20M515.43 878.54v-20" stroke="#5e5e5e" stroke-width="2" fill="#fff"/><path d="M515.43 772.74l4.64 14.27h-9.27z" stroke="#5e5e5e" stroke-width="2" fill="#5e5e5e"/><path d="M515.43 649.5v-86.62" stroke="#5e5e5e" stroke-width="2" fill="none"/><path d="M516.43 650.56l-1-.06-1 .06v-1.1h2" fill="#5e5e5e"/><path d="M505.43 562.88h20M515.43 542.88v20" stroke="#5e5e5e" stroke-width="2" fill="#fff"/><path d="M250.63 653.6a8 8 0 0 1 9.6 0l70.4 52.8a4.5 4.5 0 0 1 0 7.2l-70.4 52.8a8 8 0 0 1-9.6 0l-70.4-52.8a4.5 4.5 0 0 1 0-7.2z" stroke="#5e5e5e" stroke-width="3" fill="#fff"/><use xlink:href="#z" transform="matrix(1,0,0,1,180.43307086614163,654.9999999999999) translate(26.208703703703705 59.02777777777778)"/><path d="M395.15 908.67H261.43a6 6 0 0 1-6-6V788" stroke="#5e5e5e" stroke-width="2" fill="none"/><path d="M413.52 918.67l-20-10 20-10" stroke="#5e5e5e" stroke-width="2" fill="#fff" fill-opacity="0"/><path d="M413.52 908.67h-20" stroke="#5e5e5e" stroke-width="2" fill="#fff"/><path d="M255.43 772.74l4.64 14.27h-9.27z" stroke="#5e5e5e" stroke-width="2" fill="#5e5e5e"/><path d="M255.43 649.5V174.67a6 6 0 0 1 6-6h132.54" stroke="#5e5e5e" stroke-width="2" fill="none"/><path d="M256.43 650.56l-1-.06-1 .06v-1.1h2" fill="#5e5e5e"/><path d="M393.97 158.67v20M413.97 168.67h-20" stroke="#5e5e5e" stroke-width="2" fill="#fff"/><path d="M510.63 1023.6a8 8 0 0 1 9.6 0l70.4 52.8a4.5 4.5 0 0 1 0 7.2l-70.4 52.8a8 8 0 0 1-9.6 0l-70.4-52.8a4.5 4.5 0 0 1 0-7.2z" stroke="#5e5e5e" stroke-width="3" fill="#fff"/><use xlink:href="#A" transform="matrix(1,0,0,1,440.43307086614163,1025) translate(23.677839506172838 59.02777777777778)"/><use xlink:href="#B" transform="matrix(1,0,0,1,440.43307086614163,1025) translate(54.41858024691358 59.02777777777778)"/><path d="M515.43 957.62V1002" stroke="#5e5e5e" stroke-width="2" fill="none"/><path d="M525.43 939.24l-10 20-10-20" stroke="#5e5e5e" stroke-width="2" fill="#fff" fill-opacity="0"/><path d="M515.43 939.24v20" stroke="#5e5e5e" stroke-width="2" fill="#fff"/><path d="M515.43 1017.26L510.8 1003h9.27z" stroke="#5e5e5e" stroke-width="2" fill="#5e5e5e"/><path d="M594.94 1080h163.92a.7.7 0 0 1 .7.7.7.7 0 0 0 .72.72H905.2" stroke="#5e5e5e" stroke-width="2" fill="none"/><path d="M594.97 1081h-1.12l.1-1-.1-1h1.12" fill="#5e5e5e"/><path d="M905.2 1071.42v20M925.2 1081.42h-20" stroke="#5e5e5e" stroke-width="2" fill="#fff"/><path d="M421.6 939.83l.2 4.95.96 9.18 2.17 12.5 3.18 13.06 3.27 10.32 2.74 7 2.17 4.55 1.7 3 1.33 2.05 1.1 1.43.9 1.04.75.76.66.58.6.44.5.34.47.26.43.2.4.16.37.1.35.1.33.06.33.03h.62l.33-.03.33-.06.34-.08.36-.12.38-.15.4-.2.45-.23.47-.32.54-.4.62-.55.7-.7.8-.93.98-1.3 1.17-1.8 1.46-2.6 1.85-3.92 2.35-6.04 2.9-9.26 3.1-12.9 2.25-13.1" stroke="#5e5e5e" stroke-width="2" fill="none"/><path d="M421.37 938.83h1.2l.04 1-2 .07-.03-1.13" fill="#5e5e5e"/><path d="M470.13 942.04l3.45 14.6-9.24-.76z" stroke="#5e5e5e" stroke-width="2" fill="#5e5e5e"/><defs><path fill="#333" d="M197 0v-219H63V0H30v-248h201V0h-34" id="C"/><path fill="#333" d="M115-194c55 1 70 41 70 98S169 2 115 4C84 4 66-9 55-30l1 105H24l-1-265h31l2 30c10-21 28-34 59-34zm-8 174c40 0 45-34 45-75s-6-73-45-74c-42 0-51 32-51 76 0 43 10 73 51 73" id="D"/><path fill="#333" d="M100-194c62-1 85 37 85 99 1 63-27 99-86 99S16-35 15-95c0-66 28-99 85-99zM99-20c44 1 53-31 53-75 0-43-8-75-51-75s-53 32-53 75 10 74 51 75" id="E"/><path fill="#333" d="M147-167H93C83-118 77-63 59-23h88v-144zM24-23c26-44 31-102 41-167h113v167h26v95h-29V0H32v72H4v-95h20" id="F"/><path fill="#333" d="M179-190L93 31C79 59 56 82 12 73V49c39 6 53-20 64-50L1-190h34L92-34l54-156h33" id="G"/><path fill="#333" d="M75-87c-4 1-14 3-19 3V0H24v-190h32v83c26-2 31-21 43-41l26-42h33l-61 86L159 0h-35" id="H"/><path fill="#333" d="M6-190h153v23H98V0H67v-167H6v-23" id="I"/><g id="a"><use transform="matrix(0.06172839506172839,0,0,0.06172839506172839,0,0)" xlink:href="#C"/><use transform="matrix(0.06172839506172839,0,0,0.06172839506172839,15.925925925925926,0)" xlink:href="#D"/><use transform="matrix(0.06172839506172839,0,0,0.06172839506172839,28.271604938271604,0)" xlink:href="#E"/><use transform="matrix(0.06172839506172839,0,0,0.06172839506172839,40.123456790123456,0)" xlink:href="#F"/><use transform="matrix(0.06172839506172839,0,0,0.06172839506172839,53.08641975308642,0)" xlink:href="#G"/><use transform="matrix(0.06172839506172839,0,0,0.06172839506172839,64.19753086419753,0)" xlink:href="#H"/><use transform="matrix(0.06172839506172839,0,0,0.06172839506172839,74.1358024691358,0)" xlink:href="#I"/></g><path fill="#333" d="M212-179c-10-28-35-45-73-45-59 0-87 40-87 99 0 60 29 101 89 101 43 0 62-24 78-52l27 14C228-24 195 4 139 4 59 4 22-46 18-125c-6-104 99-153 187-111 19 9 31 26 39 46" id="J"/><path fill="#333" d="M57-190v80h85v-80h32V0h-32v-87H57V0H25v-190h32" id="K"/><path fill="#333" d="M56-190L54-37l88-153h34V0h-30l2-153L59 0H25v-190h31" id="L"/><path fill="#333" d="M138 0h-27L54-167c3 53 2 111 2 167H25v-190h49c16 56 39 106 51 166 11-61 34-110 50-166h48V0h-31l2-168" id="M"/><g id="b"><use transform="matrix(0.06172839506172839,0,0,0.06172839506172839,0,0)" xlink:href="#J"/><use transform="matrix(0.06172839506172839,0,0,0.06172839506172839,15.987654320987653,0)" xlink:href="#K"/><use transform="matrix(0.06172839506172839,0,0,0.06172839506172839,28.209876543209873,0)" xlink:href="#L"/><use transform="matrix(0.06172839506172839,0,0,0.06172839506172839,40.61728395061728,0)" xlink:href="#M"/><use transform="matrix(0.06172839506172839,0,0,0.06172839506172839,55.86419753086419,0)" xlink:href="#E"/><use transform="matrix(0.06172839506172839,0,0,0.06172839506172839,68.20987654320987,0)" xlink:href="#H"/></g><path fill="#333" d="M96-169c-40 0-48 33-48 73s9 75 48 75c24 0 41-14 43-38l32 2c-6 37-31 61-74 61-59 0-76-41-82-99-10-93 101-131 147-64 4 7 5 14 7 22l-32 3c-4-21-16-35-41-35" id="N"/><path fill="#333" d="M100-194c63 0 86 42 84 106H49c0 40 14 67 53 68 26 1 43-12 49-29l28 8c-11 28-37 45-77 45C44 4 14-33 15-96c1-61 26-98 85-98zm52 81c6-60-76-77-97-28-3 7-6 17-6 28h103" id="O"/><path fill="#333" d="M156-87c-4 1-15 3-20 3V0h-31v-84c-5 0-16-2-20-3L36 0H1l62-104c-22-24-40-59-60-86h33l50 76c5 5 9 7 19 7v-83h31v83c27-1 31-21 43-41l26-42h33l-60 86L240 0h-36" id="P"/><g id="c"><use transform="matrix(0.06172839506172839,0,0,0.06172839506172839,0,0)" xlink:href="#N"/><use transform="matrix(0.06172839506172839,0,0,0.06172839506172839,11.358024691358024,0)" xlink:href="#E"/><use transform="matrix(0.06172839506172839,0,0,0.06172839506172839,23.209876543209873,0)" xlink:href="#F"/><use transform="matrix(0.06172839506172839,0,0,0.06172839506172839,36.172839506172835,0)" xlink:href="#O"/><use transform="matrix(0.06172839506172839,0,0,0.06172839506172839,48.51851851851851,0)" xlink:href="#D"/><use transform="matrix(0.06172839506172839,0,0,0.06172839506172839,60.86419753086419,0)" xlink:href="#P"/><use transform="matrix(0.06172839506172839,0,0,0.06172839506172839,75.679012345679,0)" xlink:href="#L"/><use transform="matrix(0.06172839506172839,0,0,0.06172839506172839,88.0864197530864,0)" xlink:href="#I"/></g><path fill="#333" d="M20-138c-1-64 85-51 150-52V0h-32v-81H94L39 0H3l60-83c-28-5-43-24-43-55zm33 3c0 40 46 33 85 33v-66c-39 0-85-6-85 33" id="Q"/><path fill="#333" d="M176-55C176 11 93 0 25 0v-190c61 3 142-15 144 47 1 29-21 35-39 44 27 3 46 16 46 44zm-34 0c0-41-47-30-85-32v64c38-1 85 8 85-32zm-6-83c0-36-44-26-79-28v56c34-2 79 8 79-28" id="R"/><path fill="#333" d="M153 0v-167H87C74-108 81-27 38 0 29 5 12 6 2 1v-22c51 4 39-64 49-112 5-25 4-25 8-57h126V0h-32" id="S"/><g id="d"><use transform="matrix(0.06172839506172839,0,0,0.06172839506172839,0,0)" xlink:href="#Q"/><use transform="matrix(0.06172839506172839,0,0,0.06172839506172839,11.975308641975309,0)" xlink:href="#R"/><use transform="matrix(0.06172839506172839,0,0,0.06172839506172839,23.271604938271604,0)" xlink:href="#S"/><use transform="matrix(0.06172839506172839,0,0,0.06172839506172839,36.23456790123457,0)" xlink:href="#Q"/><use transform="matrix(0.06172839506172839,0,0,0.06172839506172839,48.20987654320988,0)" xlink:href="#O"/><use transform="matrix(0.06172839506172839,0,0,0.06172839506172839,59.81481481481482,0)" xlink:href="#I"/><use transform="matrix(0.06172839506172839,0,0,0.06172839506172839,69.69135802469137,0)" xlink:href="#N"/><use transform="matrix(0.06172839506172839,0,0,0.06172839506172839,80.80246913580248,0)" xlink:href="#Q"/></g><g id="e"><use transform="matrix(0.06172839506172839,0,0,0.06172839506172839,0,0)" xlink:href="#J"/><use transform="matrix(0.06172839506172839,0,0,0.06172839506172839,15.987654320987653,0)" xlink:href="#K"/><use transform="matrix(0.06172839506172839,0,0,0.06172839506172839,28.209876543209873,0)" xlink:href="#L"/><use transform="matrix(0.06172839506172839,0,0,0.06172839506172839,40.61728395061728,0)" xlink:href="#M"/><use transform="matrix(0.06172839506172839,0,0,0.06172839506172839,55.86419753086419,0)" xlink:href="#E"/><use transform="matrix(0.06172839506172839,0,0,0.06172839506172839,68.20987654320987,0)" xlink:href="#H"/></g><path fill="#333" d="M197 0v-115H63V0H30v-248h33v105h134v-105h34V0h-34" id="T"/><path fill="#333" d="M260-28V72h-32V0H30v-248h33v220h133v-220h33v220h31" id="U"/><path fill="#333" d="M140-251c81 0 123 46 123 126C263-46 219 4 140 4 59 4 17-45 17-125s42-126 123-126zm0 227c63 0 89-41 89-101s-29-99-89-99c-61 0-89 39-89 99S79-25 140-24" id="V"/><path fill="#333" d="M240 0l2-218c-23 76-54 145-80 218h-23L58-218 59 0H30v-248h44l77 211c21-75 51-140 76-211h43V0h-30" id="W"/><path fill="#333" d="M200-71c5 87-137 96-174 38-6-8-10-16-14-25l29-13c12 25 29 48 67 48 33 0 58-14 58-48 0-41-36-45-82-44v-26c42 2 76-5 75-43-1-27-20-40-49-40-34 0-53 18-62 43l-31-10c14-38 43-60 94-60 47 0 79 19 81 64 1 36-22 50-49 58 33 5 55 22 57 58" id="X"/><g id="f"><use transform="matrix(0.06172839506172839,0,0,0.06172839506172839,0,0)" xlink:href="#T"/><use transform="matrix(0.06172839506172839,0,0,0.06172839506172839,15.987654320987653,0)" xlink:href="#U"/><use transform="matrix(0.06172839506172839,0,0,0.06172839506172839,31.91358024691358,0)" xlink:href="#V"/><use transform="matrix(0.06172839506172839,0,0,0.06172839506172839,49.19753086419753,0)" xlink:href="#W"/><use transform="matrix(0.06172839506172839,0,0,0.06172839506172839,67.65432098765432,0)" xlink:href="#X"/></g><path fill="#333" d="M109-170H84l-4-78h32zm-65 0H19l-4-78h33" id="Y"/><path fill="#333" d="M30-248c87 1 191-15 191 75 0 78-77 80-158 76V0H30v-248zm33 125c57 0 124 11 124-50 0-59-68-47-124-48v98" id="Z"/><path fill="#333" d="M24 0v-261h32V0H24" id="aa"/><path fill="#333" d="M141-36C126-15 110 5 73 4 37 3 15-17 15-53c-1-64 63-63 125-63 3-35-9-54-41-54-24 1-41 7-42 31l-33-3c5-37 33-52 76-52 45 0 72 20 72 64v82c-1 20 7 32 28 27v20c-31 9-61-2-59-35zM48-53c0 20 12 33 32 33 41-3 63-29 60-74-43 2-92-5-92 41" id="ab"/><path fill="#333" d="M117-194c89-4 53 116 60 194h-32v-121c0-31-8-49-39-48C34-167 62-67 57 0H25l-1-190h30c1 10-1 24 2 32 11-22 29-35 61-36" id="ac"/><path fill="#333" d="M100-194c63 0 86 42 84 106H49c0 40 14 67 53 68 26 1 43-12 49-29l28 8c-11 28-37 45-77 45C44 4 14-33 15-96c1-61 26-98 85-98zm52 81c6-60-76-77-97-28-3 7-6 17-6 28h103" id="ad"/><path fill="#333" d="M59-47c-2 24 18 29 38 22v24C64 9 27 4 27-40v-127H5v-23h24l9-43h21v43h35v23H59v120" id="ae"/><g id="g"><use transform="matrix(0.06172839506172839,0,0,0.06172839506172839,0,0)" xlink:href="#Y"/><use transform="matrix(0.06172839506172839,0,0,0.06172839506172839,7.8395061728395055,0)" xlink:href="#Z"/><use transform="matrix(0.06172839506172839,0,0,0.06172839506172839,22.65432098765432,0)" xlink:href="#aa"/><use transform="matrix(0.06172839506172839,0,0,0.06172839506172839,27.53086419753086,0)" xlink:href="#ab"/><use transform="matrix(0.06172839506172839,0,0,0.06172839506172839,39.87654320987654,0)" xlink:href="#ac"/><use transform="matrix(0.06172839506172839,0,0,0.06172839506172839,52.222222222222214,0)" xlink:href="#ad"/><use transform="matrix(0.06172839506172839,0,0,0.06172839506172839,64.5679012345679,0)" xlink:href="#ae"/><use transform="matrix(0.06172839506172839,0,0,0.06172839506172839,70.74074074074073,0)" xlink:href="#Y"/></g><path fill="#333" d="M30-248c118-7 216 8 213 122C240-48 200 0 122 0H30v-248zM63-27c89 8 146-16 146-99s-60-101-146-95v194" id="af"/><path fill="#333" d="M143 4C61 4 22-44 18-125c-5-107 100-154 193-111 17 8 29 25 37 43l-32 9c-13-25-37-40-76-40-61 0-88 39-88 99 0 61 29 100 91 101 35 0 62-11 79-27v-45h-74v-28h105v86C228-13 192 4 143 4" id="ag"/><g id="h"><use transform="matrix(0.06172839506172839,0,0,0.06172839506172839,0,0)" xlink:href="#Y"/><use transform="matrix(0.06172839506172839,0,0,0.06172839506172839,7.8395061728395055,0)" xlink:href="#af"/><use transform="matrix(0.06172839506172839,0,0,0.06172839506172839,23.827160493827158,0)" xlink:href="#ag"/><use transform="matrix(0.06172839506172839,0,0,0.06172839506172839,41.11111111111111,0)" xlink:href="#Y"/></g><path fill="#333" d="M30 0v-248h30L58-37l132-211h39V0h-30l1-209L70 0H30" id="ah"/><path fill="#333" d="M131-81C94-61 21-56 21-118v-72h32c4 39-16 99 29 99 19 0 33-5 49-8v-91h31V0h-31v-81" id="ai"/><g id="i"><use transform="matrix(0.06172839506172839,0,0,0.06172839506172839,0,0)" xlink:href="#ah"/><use transform="matrix(0.06172839506172839,0,0,0.06172839506172839,15.925925925925926,0)" xlink:href="#N"/><use transform="matrix(0.06172839506172839,0,0,0.06172839506172839,27.037037037037038,0)" xlink:href="#I"/><use transform="matrix(0.06172839506172839,0,0,0.06172839506172839,36.91358024691358,0)" xlink:href="#E"/><use transform="matrix(0.06172839506172839,0,0,0.06172839506172839,48.76543209876543,0)" xlink:href="#ai"/><use transform="matrix(0.06172839506172839,0,0,0.06172839506172839,60.30864197530864,0)" xlink:href="#K"/><use transform="matrix(0.06172839506172839,0,0,0.06172839506172839,72.53086419753086,0)" xlink:href="#L"/><use transform="matrix(0.06172839506172839,0,0,0.06172839506172839,84.93827160493827,0)" xlink:href="#H"/></g><path fill="#333" d="M152-53C154 19 21 22 9-41l28-8c5 36 84 42 81-4-1-29-28-34-58-35v-24c28 0 55-4 55-30 0-19-14-29-34-28-20 0-35 7-38 25l-28-3c4-33 30-46 66-46 37 0 66 15 66 50 0 27-20 41-44 44 27 5 48 17 49 47" id="aj"/><g id="j"><use transform="matrix(0.06172839506172839,0,0,0.06172839506172839,0,0)" xlink:href="#L"/><use transform="matrix(0.06172839506172839,0,0,0.06172839506172839,12.407407407407407,0)" xlink:href="#aj"/></g><path fill="#333" d="M160-131c35 5 61 23 61 61C221 17 115-2 30 0v-248c76 3 177-17 177 60 0 33-19 50-47 57zm-97-11c50-1 110 9 110-42 0-47-63-36-110-37v79zm0 115c55-2 124 14 124-45 0-56-70-42-124-44v89" id="ak"/><g id="k"><use transform="matrix(0.06172839506172839,0,0,0.06172839506172839,0,0)" xlink:href="#ak"/><use transform="matrix(0.06172839506172839,0,0,0.06172839506172839,14.814814814814813,0)" xlink:href="#O"/><use transform="matrix(0.06172839506172839,0,0,0.06172839506172839,27.160493827160494,0)" xlink:href="#H"/><use transform="matrix(0.06172839506172839,0,0,0.06172839506172839,37.098765432098766,0)" xlink:href="#I"/><use transform="matrix(0.06172839506172839,0,0,0.06172839506172839,46.97530864197531,0)" xlink:href="#E"/><use transform="matrix(0.06172839506172839,0,0,0.06172839506172839,59.32098765432099,0)" xlink:href="#D"/></g><path fill="#333" d="M141-36C126-15 110 5 73 4 37 3 15-17 15-53c-1-64 63-63 125-63 3-35-9-54-41-54-24 1-41 7-42 31l-33-3c5-37 33-52 76-52 45 0 72 20 72 64v82c-1 20 7 32 28 27v20c-31 9-61-2-59-35zM48-53c0 20 12 33 32 33 41-3 63-29 60-74-43 2-92-5-92 41" id="al"/><g id="l"><use transform="matrix(0.06172839506172839,0,0,0.06172839506172839,0,0)" xlink:href="#K"/><use transform="matrix(0.06172839506172839,0,0,0.06172839506172839,12.222222222222221,0)" xlink:href="#al"/></g><path fill="#333" d="M105-20c41 1 53-27 53-68 0-40-9-69-50-69s-54 27-54 69c0 40 12 68 51 68zM47-134c10-28 31-47 68-47 56 0 76 33 76 92 1 60-28 90-86 93C-9 9 1-201 72-238c29-15 73-21 110-26v28c-67 12-144 10-135 102" id="am"/><g id="m"><use transform="matrix(0.06172839506172839,0,0,0.06172839506172839,0,0)" xlink:href="#V"/><use transform="matrix(0.06172839506172839,0,0,0.06172839506172839,17.28395061728395,0)" xlink:href="#am"/><use transform="matrix(0.06172839506172839,0,0,0.06172839506172839,30,0)" xlink:href="#D"/><use transform="matrix(0.06172839506172839,0,0,0.06172839506172839,42.34567901234568,0)" xlink:href="#al"/><use transform="matrix(0.06172839506172839,0,0,0.06172839506172839,54.691358024691354,0)" xlink:href="#am"/><use transform="matrix(0.06172839506172839,0,0,0.06172839506172839,67.4074074074074,0)" xlink:href="#E"/><use transform="matrix(0.06172839506172839,0,0,0.06172839506172839,79.25925925925927,0)" xlink:href="#I"/><use transform="matrix(0.06172839506172839,0,0,0.06172839506172839,89.38271604938272,0)" xlink:href="#ai"/><use transform="matrix(0.06172839506172839,0,0,0.06172839506172839,100.92592592592592,0)" xlink:href="#L"/><use transform="matrix(0.06172839506172839,0,0,0.06172839506172839,113.33333333333333,0)" xlink:href="#H"/></g><g id="n"><use transform="matrix(0.06172839506172839,0,0,0.06172839506172839,0,0)" xlink:href="#N"/><use transform="matrix(0.06172839506172839,0,0,0.06172839506172839,11.358024691358024,0)" xlink:href="#E"/><use transform="matrix(0.06172839506172839,0,0,0.06172839506172839,23.45679012345679,0)" xlink:href="#aj"/><use transform="matrix(0.06172839506172839,0,0,0.06172839506172839,33.14814814814815,0)" xlink:href="#F"/><use transform="matrix(0.06172839506172839,0,0,0.06172839506172839,46.111111111111114,0)" xlink:href="#al"/><use transform="matrix(0.06172839506172839,0,0,0.06172839506172839,58.45679012345679,0)" xlink:href="#S"/></g><path fill="#333" d="M205 0l-28-72H64L36 0H1l101-248h38L239 0h-34zm-38-99l-47-123c-12 45-31 82-46 123h93" id="an"/><g id="o"><use transform="matrix(0.06172839506172839,0,0,0.06172839506172839,0,0)" xlink:href="#an"/><use transform="matrix(0.06172839506172839,0,0,0.06172839506172839,14.814814814814813,0)" xlink:href="#R"/><use transform="matrix(0.06172839506172839,0,0,0.06172839506172839,26.111111111111107,0)" xlink:href="#I"/><use transform="matrix(0.06172839506172839,0,0,0.06172839506172839,35.987654320987644,0)" xlink:href="#E"/><use transform="matrix(0.06172839506172839,0,0,0.06172839506172839,48.33333333333332,0)" xlink:href="#D"/></g><path fill="#333" d="M240 0l2-218c-23 76-54 145-80 218h-23L58-218 59 0H30v-248h44l77 211c21-75 51-140 76-211h43V0h-30" id="ao"/><path fill="#333" d="M30 0v-248h33v221h125V0H30" id="ap"/><g id="p"><use transform="matrix(0.06172839506172839,0,0,0.06172839506172839,0,0)" xlink:href="#ao"/><use transform="matrix(0.06172839506172839,0,0,0.06172839506172839,18.456790123456788,0)" xlink:href="#ap"/></g><path fill="#333" d="M173-56C173 11 92 0 25 0v-190h32v80c58-2 117-2 116 54zm-34 0c0-39-44-31-82-32v66c39 0 82 6 82-34" id="aq"/><g id="q"><use transform="matrix(0.06172839506172839,0,0,0.06172839506172839,0,0)" xlink:href="#M"/><use transform="matrix(0.06172839506172839,0,0,0.06172839506172839,15.246913580246913,0)" xlink:href="#E"/><use transform="matrix(0.06172839506172839,0,0,0.06172839506172839,27.098765432098766,0)" xlink:href="#F"/><use transform="matrix(0.06172839506172839,0,0,0.06172839506172839,40.06172839506173,0)" xlink:href="#O"/><use transform="matrix(0.06172839506172839,0,0,0.06172839506172839,51.666666666666664,0)" xlink:href="#S"/><use transform="matrix(0.06172839506172839,0,0,0.06172839506172839,64.62962962962962,0)" xlink:href="#aq"/></g><path fill="#333" d="M94-120c-9 3-20 7-31 7V0H30v-248h33v109c41-1 47-27 65-55l36-54h35c-23 32-58 90-81 112L208 0h-39" id="ar"/><g id="r"><use transform="matrix(0.06172839506172839,0,0,0.06172839506172839,0,0)" xlink:href="#ar"/><use transform="matrix(0.06172839506172839,0,0,0.06172839506172839,12.901234567901234,0)" xlink:href="#S"/><use transform="matrix(0.06172839506172839,0,0,0.06172839506172839,25.864197530864196,0)" xlink:href="#al"/><use transform="matrix(0.06172839506172839,0,0,0.06172839506172839,38.20987654320987,0)" xlink:href="#N"/><use transform="matrix(0.06172839506172839,0,0,0.06172839506172839,49.32098765432099,0)" xlink:href="#N"/></g><g id="s"><use transform="matrix(0.06172839506172839,0,0,0.06172839506172839,0,0)" xlink:href="#R"/><use transform="matrix(0.06172839506172839,0,0,0.06172839506172839,11.54320987654321,0)" xlink:href="#O"/><use transform="matrix(0.06172839506172839,0,0,0.06172839506172839,23.88888888888889,0)" xlink:href="#H"/><use transform="matrix(0.06172839506172839,0,0,0.06172839506172839,33.827160493827165,0)" xlink:href="#I"/><use transform="matrix(0.06172839506172839,0,0,0.06172839506172839,43.70370370370371,0)" xlink:href="#E"/><use transform="matrix(0.06172839506172839,0,0,0.06172839506172839,56.04938271604939,0)" xlink:href="#D"/><use transform="matrix(0.06172839506172839,0,0,0.06172839506172839,68.39506172839506,0)" xlink:href="#al"/></g><path fill="#333" d="M170-190V0h-32v-167H57V0H25v-190h145" id="as"/><g id="t"><use transform="matrix(0.06172839506172839,0,0,0.06172839506172839,0,0)" xlink:href="#as"/><use transform="matrix(0.06172839506172839,0,0,0.06172839506172839,11.975308641975309,0)" xlink:href="#D"/><use transform="matrix(0.06172839506172839,0,0,0.06172839506172839,24.320987654320987,0)" xlink:href="#L"/><use transform="matrix(0.06172839506172839,0,0,0.06172839506172839,36.72839506172839,0)" xlink:href="#K"/><use transform="matrix(0.06172839506172839,0,0,0.06172839506172839,48.95061728395061,0)" xlink:href="#al"/><use transform="matrix(0.06172839506172839,0,0,0.06172839506172839,61.29629629629629,0)" xlink:href="#F"/><use transform="matrix(0.06172839506172839,0,0,0.06172839506172839,74.25925925925925,0)" xlink:href="#S"/><use transform="matrix(0.06172839506172839,0,0,0.06172839506172839,87.22222222222221,0)" xlink:href="#O"/><use transform="matrix(0.06172839506172839,0,0,0.06172839506172839,99.32098765432099,0)" xlink:href="#P"/><use transform="matrix(0.06172839506172839,0,0,0.06172839506172839,114.1358024691358,0)" xlink:href="#L"/><use transform="matrix(0.06172839506172839,0,0,0.06172839506172839,126.5432098765432,0)" xlink:href="#I"/></g><path fill="#333" d="M170-56C169 10 92 0 25 0v-190h32v80c58-2 114-1 113 54zm-34 0c0-38-42-32-79-32v66c38 0 79 5 79-34zm66 56v-190h32V0h-32" id="at"/><g id="u"><use transform="matrix(0.06172839506172839,0,0,0.06172839506172839,0,0)" xlink:href="#ak"/><use transform="matrix(0.06172839506172839,0,0,0.06172839506172839,14.814814814814813,0)" xlink:href="#at"/><use transform="matrix(0.06172839506172839,0,0,0.06172839506172839,30.74074074074074,0)" xlink:href="#am"/><use transform="matrix(0.06172839506172839,0,0,0.06172839506172839,43.45679012345679,0)" xlink:href="#E"/><use transform="matrix(0.06172839506172839,0,0,0.06172839506172839,55.80246913580247,0)" xlink:href="#D"/><use transform="matrix(0.06172839506172839,0,0,0.06172839506172839,68.14814814814815,0)" xlink:href="#H"/><use transform="matrix(0.06172839506172839,0,0,0.06172839506172839,78.33333333333333,0)" xlink:href="#al"/></g><path fill="#333" d="M147-157h-42c-8 43-13 90-29 124h71v-124zM24-33c25-41 30-96 40-157h132v157h26V72h-43V0H46v72H2V-33h22" id="au"/><path fill="#333" d="M133-34C117-15 103 5 69 4 32 3 11-16 11-54c-1-60 55-63 116-61 1-26-3-47-28-47-18 1-26 9-28 27l-52-2c7-38 36-58 82-57s74 22 75 68l1 82c-1 14 12 18 25 15v27c-30 8-71 5-69-32zm-48 3c29 0 43-24 42-57-32 0-66-3-65 30 0 17 8 27 23 27" id="av"/><g id="v"><use transform="matrix(0.04938271604938272,0,0,0.04938271604938272,0,0)" xlink:href="#au"/><use transform="matrix(0.04938271604938272,0,0,0.04938271604938272,11.25925925925926,0)" xlink:href="#av"/></g><path fill="#333" d="M75-190v75h68v-75h49V0h-49v-81H75V0H25v-190h50" id="aw"/><path fill="#333" d="M185-48c-13 30-37 53-82 52C43 2 14-33 14-96s30-98 90-98c62 0 83 45 84 108H66c0 31 8 55 39 56 18 0 30-7 34-22zm-45-69c5-46-57-63-70-21-2 6-4 13-4 21h74" id="ax"/><path fill="#333" d="M10-190h156v33h-53V0H63v-157H10v-33" id="ay"/><g id="w"><use transform="matrix(0.04938271604938272,0,0,0.04938271604938272,0,0)" xlink:href="#aw"/><use transform="matrix(0.04938271604938272,0,0,0.04938271604938272,10.71604938271605,0)" xlink:href="#ax"/><use transform="matrix(0.04938271604938272,0,0,0.04938271604938272,20.345679012345684,0)" xlink:href="#ay"/></g><path fill="#333" d="M212-139c-7-50-31-85-87-85-38 0-61 18-73 45l-31-11c15-39 51-61 105-61 79 1 113 48 120 126C258 12 67 46 18-62l28-14C59-28 146-3 185-48c15-15 25-38 27-64H97v-27h115" id="az"/><g id="x"><use transform="matrix(0.06172839506172839,0,0,0.06172839506172839,0,0)" xlink:href="#az"/><use transform="matrix(0.06172839506172839,0,0,0.06172839506172839,15.925925925925926,0)" xlink:href="#H"/><use transform="matrix(0.06172839506172839,0,0,0.06172839506172839,25.864197530864196,0)" xlink:href="#N"/><use transform="matrix(0.06172839506172839,0,0,0.06172839506172839,36.9753086419753,0)" xlink:href="#as"/><use transform="matrix(0.06172839506172839,0,0,0.06172839506172839,48.95061728395061,0)" xlink:href="#O"/><use transform="matrix(0.06172839506172839,0,0,0.06172839506172839,61.29629629629629,0)" xlink:href="#D"/><use transform="matrix(0.06172839506172839,0,0,0.06172839506172839,73.64197530864197,0)" xlink:href="#L"/><use transform="matrix(0.06172839506172839,0,0,0.06172839506172839,86.04938271604938,0)" xlink:href="#M"/><use transform="matrix(0.06172839506172839,0,0,0.06172839506172839,101.29629629629629,0)" xlink:href="#O"/><use transform="matrix(0.06172839506172839,0,0,0.06172839506172839,113.64197530864197,0)" xlink:href="#K"/><use transform="matrix(0.06172839506172839,0,0,0.06172839506172839,125.8641975308642,0)" xlink:href="#I"/></g><g id="y"><use transform="matrix(0.06172839506172839,0,0,0.06172839506172839,0,0)" xlink:href="#as"/><use transform="matrix(0.06172839506172839,0,0,0.06172839506172839,11.975308641975309,0)" xlink:href="#E"/><use transform="matrix(0.06172839506172839,0,0,0.06172839506172839,24.320987654320987,0)" xlink:href="#D"/><use transform="matrix(0.06172839506172839,0,0,0.06172839506172839,36.666666666666664,0)" xlink:href="#E"/><use transform="matrix(0.06172839506172839,0,0,0.06172839506172839,48.76543209876543,0)" xlink:href="#P"/><use transform="matrix(0.06172839506172839,0,0,0.06172839506172839,63.58024691358025,0)" xlink:href="#F"/><use transform="matrix(0.06172839506172839,0,0,0.06172839506172839,76.5432098765432,0)" xlink:href="#O"/><use transform="matrix(0.06172839506172839,0,0,0.06172839506172839,88.88888888888889,0)" xlink:href="#K"/><use transform="matrix(0.06172839506172839,0,0,0.06172839506172839,101.11111111111111,0)" xlink:href="#al"/></g><path fill="#333" d="M100-194c63 0 86 42 84 106H49c0 40 14 67 53 68 26 1 43-12 49-29l28 8c-11 28-37 45-77 45C44 4 14-33 15-96c1-61 26-98 85-98zm52 81c6-60-76-77-97-28-3 7-6 17-6 28h103zm-31-101v-33h29v33h-29zm-69 0v-33h29v33H52" id="aA"/><g id="z"><use transform="matrix(0.06172839506172839,0,0,0.06172839506172839,0,0)" xlink:href="#as"/><use transform="matrix(0.06172839506172839,0,0,0.06172839506172839,11.975308641975309,0)" xlink:href="#D"/><use transform="matrix(0.06172839506172839,0,0,0.06172839506172839,24.320987654320987,0)" xlink:href="#E"/><use transform="matrix(0.06172839506172839,0,0,0.06172839506172839,36.666666666666664,0)" xlink:href="#R"/><use transform="matrix(0.06172839506172839,0,0,0.06172839506172839,48.20987654320987,0)" xlink:href="#O"/><use transform="matrix(0.06172839506172839,0,0,0.06172839506172839,60.06172839506172,0)" xlink:href="#F"/><use transform="matrix(0.06172839506172839,0,0,0.06172839506172839,73.02469135802468,0)" xlink:href="#aA"/><use transform="matrix(0.06172839506172839,0,0,0.06172839506172839,85.37037037037037,0)" xlink:href="#K"/></g><g id="A"><use transform="matrix(0.06172839506172839,0,0,0.06172839506172839,0,0)" xlink:href="#K"/><use transform="matrix(0.06172839506172839,0,0,0.06172839506172839,12.222222222222221,0)" xlink:href="#al"/></g><g id="B"><use transform="matrix(0.06172839506172839,0,0,0.06172839506172839,0,0)" xlink:href="#E"/><use transform="matrix(0.06172839506172839,0,0,0.06172839506172839,12.345679012345679,0)" xlink:href="#N"/><use transform="matrix(0.06172839506172839,0,0,0.06172839506172839,23.45679012345679,0)" xlink:href="#K"/><use transform="matrix(0.06172839506172839,0,0,0.06172839506172839,35.67901234567901,0)" xlink:href="#E"/><use transform="matrix(0.06172839506172839,0,0,0.06172839506172839,48.02469135802469,0)" xlink:href="#R"/><use transform="matrix(0.06172839506172839,0,0,0.06172839506172839,59.5679012345679,0)" xlink:href="#O"/></g></defs></g></svg>