<svg xmlns="http://www.w3.org/2000/svg" xmlns:xlink="http://www.w3.org/1999/xlink" xmlns:lucid="lucid" width="1341" height="1257"><g transform="translate(-156 -46)" lucid:page-tab-id="0_0"><path d="M1185 368a8 8 0 0 1 8-8h284a8 8 0 0 1 8 8v152a8 8 0 0 1-8 8h-284a8 8 0 0 1-8-8z" fill="#fff"/><path d="M1185 368a8 8 0 0 1 8-8h284a8 8 0 0 1 8 8v152a8 8 0 0 1-8 8h-284a8 8 0 0 1-8-8zM1185 400h300M1335 400v128" stroke="#333" fill="none"/><use xlink:href="#a" transform="matrix(1,0,0,1,1195,360) translate(110.025 23.6)"/><use xlink:href="#b" transform="matrix(1,0,0,1,1190,402.5) translate(63.025 17.1)"/><use xlink:href="#c" transform="matrix(1,0,0,1,1340,402.5) translate(49.36851851851851 16.96666666666667)"/><use xlink:href="#d" transform="matrix(1,0,0,1,1190,434.5) translate(53 17.1)"/><use xlink:href="#e" transform="matrix(1,0,0,1,1340,434.5) translate(41.15925925925926 16.96666666666667)"/><use xlink:href="#f" transform="matrix(1,0,0,1,1190,466.5) translate(39.075 17.1)"/><use xlink:href="#e" transform="matrix(1,0,0,1,1340,466.5) translate(41.15925925925926 16.96666666666667)"/><use xlink:href="#g" transform="matrix(1,0,0,1,1190,498.5) translate(-0.9249999999999972 17.1)"/><use xlink:href="#h" transform="matrix(1,0,0,1,1340,498.5) translate(35.55 17.1)"/><path d="M645 68.05a8 8 0 0 1 8-8h344a8 8 0 0 1 8 8v440a8 8 0 0 1-8 8H653a8 8 0 0 1-8-8z" fill="#fff"/><path d="M645 68.05a8 8 0 0 1 8-8h344a8 8 0 0 1 8 8v440a8 8 0 0 1-8 8H653a8 8 0 0 1-8-8zM645 100.05h360M825 100.05v416" stroke="#333" fill="none"/><use xlink:href="#i" transform="matrix(1,0,0,1,655,60.049366072049224) translate(145.55 23.6)"/><use xlink:href="#b" transform="matrix(1,0,0,1,650,102.54936607204922) translate(78.025 17.1)"/><use xlink:href="#c" transform="matrix(1,0,0,1,830,102.54936607204922) translate(64.36851851851851 16.96666666666667)"/><use xlink:href="#j" transform="matrix(1,0,0,1,650,134.54936607204922) translate(41.074999999999996 17.1)"/><use xlink:href="#e" transform="matrix(1,0,0,1,830,134.54936607204922) translate(56.15925925925926 16.96666666666667)"/><use xlink:href="#k" transform="matrix(1,0,0,1,650,166.54936607204922) translate(58.025 17.1)"/><use xlink:href="#l" transform="matrix(1,0,0,1,830,166.54936607204922) translate(63.575 17.1)"/><use xlink:href="#m" transform="matrix(1,0,0,1,650,198.54936607204922) translate(73 17.1)"/><use xlink:href="#n" transform="matrix(1,0,0,1,830,198.54936607204922) translate(55.05 17.1)"/><use xlink:href="#o" transform="matrix(1,0,0,1,650,230.54936607204922) translate(9.574999999999989 17.1)"/><use xlink:href="#p" transform="matrix(1,0,0,1,830,230.54936607204922) translate(68.525 17.1)"/><use xlink:href="#q" transform="matrix(1,0,0,1,650,262.5493660720492) translate(10.575000000000003 17.1)"/><use xlink:href="#h" transform="matrix(1,0,0,1,830,262.5493660720492) translate(50.55 17.1)"/><use xlink:href="#r" transform="matrix(1,0,0,1,650,294.5493660720492) translate(4.075000000000017 17.1)"/><use xlink:href="#h" transform="matrix(1,0,0,1,830,294.5493660720492) translate(50.55 17.1)"/><use xlink:href="#d" transform="matrix(1,0,0,1,650,326.5493660720492) translate(68 17.1)"/><use xlink:href="#n" transform="matrix(1,0,0,1,830,326.5493660720492) translate(55.05 17.1)"/><use xlink:href="#s" transform="matrix(1,0,0,1,650,358.5493660720492) translate(47.55 17.1)"/><use xlink:href="#s" transform="matrix(1,0,0,1,830,358.5493660720492) translate(47.55 17.1)"/><use xlink:href="#t" transform="matrix(1,0,0,1,650,390.5493660720492) translate(67.5 17.1)"/><use xlink:href="#n" transform="matrix(1,0,0,1,830,390.5493660720492) translate(55.05 17.1)"/><use xlink:href="#u" transform="matrix(1,0,0,1,650,422.5493660720492) translate(55.525 17.1)"/><use xlink:href="#n" transform="matrix(1,0,0,1,830,422.5493660720492) translate(55.05 17.1)"/><use xlink:href="#v" transform="matrix(1,0,0,1,650,454.5493660720492) translate(37.525 17.1)"/><use xlink:href="#w" transform="matrix(1,0,0,1,830,454.5493660720492) translate(28.65 17.1)"/><use xlink:href="#x" transform="matrix(1,0,0,1,650,486.5493660720492) translate(43.05 17.1)"/><use xlink:href="#l" transform="matrix(1,0,0,1,830,486.5493660720492) translate(63.575 17.1)"/><path d="M1025.5 500.05h57.5a12 12 0 0 0 12-12V427.9a12 12 0 0 1 12-12h58.12" stroke="#333" fill="none"/><path d="M1025.5 510.05v-20M1005.5 500.05h20" stroke="#333" fill="#fff"/><path d="M1184.3 425.9l-20-10 20-10" stroke="#333" fill="#fff" fill-opacity="0"/><path d="M1184.3 415.9h-20" stroke="#333" fill="#fff"/><path d="M165 68a8 8 0 0 1 8-8h244a8 8 0 0 1 8 8v88a8 8 0 0 1-8 8H173a8 8 0 0 1-8-8z" fill="#fff"/><path d="M165 68a8 8 0 0 1 8-8h244a8 8 0 0 1 8 8v88a8 8 0 0 1-8 8H173a8 8 0 0 1-8-8zM165 100h260M295 100v64" stroke="#333" fill="none"/><use xlink:href="#y" transform="matrix(1,0,0,1,175,60) translate(66.07499999999999 23.6)"/><use xlink:href="#b" transform="matrix(1,0,0,1,170,102.5) translate(53.025 17.1)"/><use xlink:href="#l" transform="matrix(1,0,0,1,300,102.5) translate(38.575 17.1)"/><use xlink:href="#z" transform="matrix(1,0,0,1,170,134.5) translate(16.049999999999997 17.1)"/><use xlink:href="#s" transform="matrix(1,0,0,1,300,134.5) translate(22.549999999999997 17.1)"/><path d="M445.46 116h89.5a.03.03 0 0 1 .02.02.03.03 0 0 0 .03.03h89.5" stroke="#333" fill="none"/><path d="M445.46 126v-20M425.46 116h20M624.5 106.05v20M644.5 116.05h-20" stroke="#333" fill="#fff"/><path d="M165 220a8 8 0 0 1 8-8h244a8 8 0 0 1 8 8v120a8 8 0 0 1-8 8H173a8 8 0 0 1-8-8z" fill="#fff"/><path d="M165 220a8 8 0 0 1 8-8h244a8 8 0 0 1 8 8v120a8 8 0 0 1-8 8H173a8 8 0 0 1-8-8zM165 252h260M295 252v96" stroke="#333" fill="none"/><use xlink:href="#A" transform="matrix(1,0,0,1,175,212) translate(80.55 23.6)"/><use xlink:href="#b" transform="matrix(1,0,0,1,170,254.5) translate(53.025 17.1)"/><use xlink:href="#l" transform="matrix(1,0,0,1,300,254.5) translate(38.575 17.1)"/><use xlink:href="#z" transform="matrix(1,0,0,1,170,286.5) translate(16.049999999999997 17.1)"/><use xlink:href="#s" transform="matrix(1,0,0,1,300,286.5) translate(22.549999999999997 17.1)"/><use xlink:href="#B" transform="matrix(1,0,0,1,170,318.5) translate(-0.42500000000000426 17.1)"/><use xlink:href="#C" transform="matrix(1,0,0,1,300,318.5) translate(50.525 17.1)"/><path d="M445.44 268h77.54a12 12 0 0 0 12-12V128.06a12 12 0 0 1 12-12h77.53" stroke="#333" fill="none"/><path d="M445.44 278v-20M425.44 268h20M624.5 106.05v20M644.5 116.05h-20" stroke="#333" fill="#fff"/><path d="M165 404a8 8 0 0 1 8-8h244a8 8 0 0 1 8 8v184a8 8 0 0 1-8 8H173a8 8 0 0 1-8-8z" fill="#fff"/><path d="M165 404a8 8 0 0 1 8-8h244a8 8 0 0 1 8 8v184a8 8 0 0 1-8 8H173a8 8 0 0 1-8-8zM165 436h260M295 436v160" stroke="#333" fill="none"/><use xlink:href="#D" transform="matrix(1,0,0,1,175,396.00000000000006) translate(61.574999999999996 23.6)"/><use xlink:href="#b" transform="matrix(1,0,0,1,170,438.50000000000006) translate(53.025 17.1)"/><use xlink:href="#l" transform="matrix(1,0,0,1,300,438.50000000000006) translate(38.575 17.1)"/><use xlink:href="#E" transform="matrix(1,0,0,1,170,470.50000000000006) translate(40.5 17.1)"/><use xlink:href="#n" transform="matrix(1,0,0,1,300,470.50000000000006) translate(30.049999999999997 17.1)"/><use xlink:href="#F" transform="matrix(1,0,0,1,170,502.50000000000006) translate(36 17.1)"/><use xlink:href="#C" transform="matrix(1,0,0,1,300,502.50000000000006) translate(50.525 17.1)"/><use xlink:href="#G" transform="matrix(1,0,0,1,170,534.5) translate(26.525 17.1)"/><use xlink:href="#H" transform="matrix(1,0,0,1,300,534.5) translate(43.025 17.1)"/><use xlink:href="#I" transform="matrix(1,0,0,1,170,566.5) translate(31 17.1)"/><use xlink:href="#w" transform="matrix(1,0,0,1,300,566.5) translate(3.6499999999999986 17.1)"/><path d="M445.43 451.86h77.54a12 12 0 0 0 12-12v-311.8a12 12 0 0 1 12-12h77.54" stroke="#333" fill="none"/><path d="M445.43 461.86v-20M425.43 451.86h20M624.5 106.05v20M644.5 116.05h-20" stroke="#333" fill="#fff"/><path d="M535 671.5a8 8 0 0 1 8-8h244a8 8 0 0 1 8 8v184a8 8 0 0 1-8 8H543a8 8 0 0 1-8-8z" fill="#fff"/><path d="M535 671.5a8 8 0 0 1 8-8h244a8 8 0 0 1 8 8v184a8 8 0 0 1-8 8H543a8 8 0 0 1-8-8zM535 703.5h260M665 703.5v160" stroke="#333" fill="none"/><use xlink:href="#J" transform="matrix(1,0,0,1,545,663.4998336273998) translate(95.525 23.6)"/><use xlink:href="#b" transform="matrix(1,0,0,1,540,705.9998336273998) translate(53.025 17.1)"/><use xlink:href="#l" transform="matrix(1,0,0,1,670,705.9998336273998) translate(38.575 17.1)"/><use xlink:href="#K" transform="matrix(1,0,0,1,540,737.9998336273998) translate(27.549999999999997 17.1)"/><use xlink:href="#l" transform="matrix(1,0,0,1,670,737.9998336273998) translate(38.575 17.1)"/><use xlink:href="#L" transform="matrix(1,0,0,1,540,769.9998336273998) translate(23.574999999999996 17.1)"/><use xlink:href="#l" transform="matrix(1,0,0,1,670,769.9998336273998) translate(38.575 17.1)"/><use xlink:href="#M" transform="matrix(1,0,0,1,540,801.9998336273998) translate(39.525 17.1)"/><use xlink:href="#p" transform="matrix(1,0,0,1,670,801.9998336273998) translate(43.525 17.1)"/><use xlink:href="#s" transform="matrix(1,0,0,1,540,833.9998336273998) translate(22.549999999999997 17.1)"/><use xlink:href="#s" transform="matrix(1,0,0,1,670,833.9998336273998) translate(22.549999999999997 17.1)"/><path d="M885 671.68a8 8 0 0 1 8-8h244a8 8 0 0 1 8 8v120a8 8 0 0 1-8 8H893a8 8 0 0 1-8-8z" fill="#fff"/><path d="M885 671.68a8 8 0 0 1 8-8h244a8 8 0 0 1 8 8v120a8 8 0 0 1-8 8H893a8 8 0 0 1-8-8zM885 703.68h260M1015 703.68v96" stroke="#333" fill="none"/><use xlink:href="#N" transform="matrix(1,0,0,1,895,663.6784499761418) translate(65.05 23.6)"/><use xlink:href="#O" transform="matrix(1,0,0,1,890,706.1784499761418) translate(23.549999999999997 17.1)"/><use xlink:href="#l" transform="matrix(1,0,0,1,1020,706.1784499761418) translate(38.575 17.1)"/><use xlink:href="#P" transform="matrix(1,0,0,1,890,738.1784499761418) translate(22.549999999999997 17.1)"/><use xlink:href="#l" transform="matrix(1,0,0,1,1020,738.1784499761418) translate(38.575 17.1)"/><use xlink:href="#Q" transform="matrix(1,0,0,1,890,770.1784499761418) translate(23.574999999999996 17.1)"/><use xlink:href="#l" transform="matrix(1,0,0,1,1020,770.1784499761418) translate(38.575 17.1)"/><path d="M165 671.68a8 8 0 0 1 8-8h264a8 8 0 0 1 8 8v152a8 8 0 0 1-8 8H173a8 8 0 0 1-8-8z" fill="#fff"/><path d="M165 671.68a8 8 0 0 1 8-8h264a8 8 0 0 1 8 8v152a8 8 0 0 1-8 8H173a8 8 0 0 1-8-8zM165 703.68h280M305 703.68v128" stroke="#333" fill="none"/><use xlink:href="#R" transform="matrix(1,0,0,1,175,663.6784499761418) translate(80.05 23.6)"/><use xlink:href="#b" transform="matrix(1,0,0,1,170,706.1784499761418) translate(58.025 17.1)"/><use xlink:href="#l" transform="matrix(1,0,0,1,310,706.1784499761418) translate(43.575 17.1)"/><use xlink:href="#S" transform="matrix(1,0,0,1,170,738.1784499761418) translate(-2.9250000000000114 17.1)"/><use xlink:href="#n" transform="matrix(1,0,0,1,310,738.1784499761418) translate(35.05 17.1)"/><use xlink:href="#T" transform="matrix(1,0,0,1,170,770.1784499761418) translate(-0.4000000000000057 17.1)"/><use xlink:href="#U" transform="matrix(1,0,0,1,310,770.1784499761418) translate(50.5 17.1)"/><use xlink:href="#V" transform="matrix(1,0,0,1,170,802.1784499761418) translate(45.55 17.1)"/><use xlink:href="#W" transform="matrix(1,0,0,1,310,802.1784499761418) translate(19.124999999999993 17.1)"/><use xlink:href="#X" transform="matrix(1,0,0,1,310,802.1784499761418) translate(94.92500000000001 17.1)"/><path d="M514.54 751.5H502a12 12 0 0 1-12-12v-7.9a12 12 0 0 0-12-12h-13.16" stroke="#333" fill="none"/><path d="M514.54 741.5v20M534.54 751.5h-20" stroke="#333" fill="#fff"/><path d="M445.66 709.6l20 10-20 10" stroke="#333" fill="#fff" fill-opacity="0"/><path d="M445.66 719.6h20" stroke="#333" fill="#fff"/><path d="M815.46 783.5a10 10 0 0 0 10-10V535.9" stroke="#333" fill="none"/><path d="M815.46 793.5v-20M795.46 783.5h20" stroke="#333" fill="#fff"/><path d="M835.46 516.72l-10 20-10-20" stroke="#333" fill="#fff" fill-opacity="0"/><path d="M825.46 516.72v20" stroke="#333" fill="#fff"/><path d="M864.54 719.68h-24.47a.08.08 0 0 1-.1-.08.08.08 0 0 0-.07-.1h-25.06" stroke="#333" fill="none"/><path d="M864.54 709.68v20M884.54 719.68h-20" stroke="#333" fill="#fff"/><path d="M795.65 709.5l20 10-20 10" stroke="#333" fill="#fff" fill-opacity="0"/><path d="M795.65 719.5h20" stroke="#333" fill="#fff"/><path d="M1205 703.86a8 8 0 0 1 8-8h244a8 8 0 0 1 8 8v120a8 8 0 0 1-8 8h-244a8 8 0 0 1-8-8z" fill="#fff"/><path d="M1205 703.86a8 8 0 0 1 8-8h244a8 8 0 0 1 8 8v120a8 8 0 0 1-8 8h-244a8 8 0 0 1-8-8zM1205 735.86h260M1335 735.86v96" stroke="#333" fill="none"/><use xlink:href="#Y" transform="matrix(1,0,0,1,1215,695.8570663248838) translate(94.525 23.6)"/><use xlink:href="#b" transform="matrix(1,0,0,1,1210,738.3570663248838) translate(53.025 17.1)"/><use xlink:href="#l" transform="matrix(1,0,0,1,1340,738.3570663248838) translate(38.575 17.1)"/><use xlink:href="#Z" transform="matrix(1,0,0,1,1210,770.3570663248838) translate(37.525 17.1)"/><use xlink:href="#W" transform="matrix(1,0,0,1,1340,770.3570663248838) translate(14.124999999999993 17.1)"/><use xlink:href="#X" transform="matrix(1,0,0,1,1340,770.3570663248838) translate(89.92500000000001 17.1)"/><use xlink:href="#aa" transform="matrix(1,0,0,1,1210,802.3570663248838) translate(26.5 17.1)"/><use xlink:href="#p" transform="matrix(1,0,0,1,1340,802.3570663248838) translate(43.525 17.1)"/><path d="M1165.47 751.68h9.47a.07.07 0 0 1 .06.07.07.07 0 0 0 .07.06h10.06" stroke="#333" fill="none"/><path d="M1165.47 761.68v-20M1145.47 751.68h20" stroke="#333" fill="#fff"/><path d="M1204.32 761.8l-20-10 20-10" stroke="#333" fill="#fff" fill-opacity="0"/><path d="M1204.32 751.8h-20" stroke="#333" fill="#fff"/><path d="M175 907.36a8 8 0 0 1 8-8h244a8 8 0 0 1 8 8v88a8 8 0 0 1-8 8H183a8 8 0 0 1-8-8z" fill="#fff"/><path d="M175 907.36a8 8 0 0 1 8-8h244a8 8 0 0 1 8 8v88a8 8 0 0 1-8 8H183a8 8 0 0 1-8-8zM175 939.36h260M305 939.36v64" stroke="#333" fill="none"/><use xlink:href="#ab" transform="matrix(1,0,0,1,185,899.3568999522836) translate(90.5 23.6)"/><use xlink:href="#b" transform="matrix(1,0,0,1,180,941.8568999522836) translate(53.025 17.1)"/><use xlink:href="#l" transform="matrix(1,0,0,1,310,941.8568999522836) translate(38.575 17.1)"/><use xlink:href="#ac" transform="matrix(1,0,0,1,180,973.8568999522836) translate(22.549999999999997 17.1)"/><use xlink:href="#l" transform="matrix(1,0,0,1,310,973.8568999522836) translate(38.575 17.1)"/><path d="M455.5 987.36h8a12 12 0 0 0 12-12v-8a12 12 0 0 0-12-12h-8.63" stroke="#333" fill="none"/><path d="M455.5 997.36v-20M435.5 987.36h20" stroke="#333" fill="#fff"/><path d="M435.68 945.36l20 10-20 10" stroke="#333" fill="#fff" fill-opacity="0"/><path d="M435.68 955.36h20" stroke="#333" fill="#fff"/><path d="M535 951.5a8 8 0 0 1 8-8h244a8 8 0 0 1 8 8v120a8 8 0 0 1-8 8H543a8 8 0 0 1-8-8z" fill="#fff"/><path d="M535 951.5a8 8 0 0 1 8-8h244a8 8 0 0 1 8 8v120a8 8 0 0 1-8 8H543a8 8 0 0 1-8-8zM535 983.5h260M665 983.5v96" stroke="#333" fill="none"/><use xlink:href="#ad" transform="matrix(1,0,0,1,545,943.4998336273998) translate(31.57499999999999 23.6)"/><use xlink:href="#O" transform="matrix(1,0,0,1,540,985.9998336273998) translate(23.549999999999997 17.1)"/><use xlink:href="#l" transform="matrix(1,0,0,1,670,985.9998336273998) translate(38.575 17.1)"/><use xlink:href="#L" transform="matrix(1,0,0,1,540,1017.9998336273998) translate(23.574999999999996 17.1)"/><use xlink:href="#l" transform="matrix(1,0,0,1,670,1017.9998336273998) translate(38.575 17.1)"/><use xlink:href="#ae" transform="matrix(1,0,0,1,540,1049.9998336273998) translate(18.525 17.1)"/><use xlink:href="#l" transform="matrix(1,0,0,1,670,1049.9998336273998) translate(38.575 17.1)"/><path d="M514.54 999.5h-8a12 12 0 0 1-12-12v-71.77a12 12 0 0 1 12-12H653a12 12 0 0 0 12-12v-8.37" stroke="#333" fill="none"/><path d="M514.54 989.5v20M534.54 999.5h-20" stroke="#333" fill="#fff"/><path d="M675 864.17l-10 20-10-20" stroke="#333" fill="#fff" fill-opacity="0"/><path d="M665 864.17v20" stroke="#333" fill="#fff"/><path d="M514.6 1063.5H317a12 12 0 0 1-12-12v-28.28" stroke="#333" fill="none"/><path d="M514.6 1053.5v20M534.6 1063.5h-20" stroke="#333" fill="#fff"/><path d="M315 1004.03l-10 20-10-20" stroke="#333" fill="#fff" fill-opacity="0"/><path d="M305 1004.03v20" stroke="#333" fill="#fff"/><path d="M815.5 1063.7a9.5 9.5 0 0 0 9.5-9.5V535.9" stroke="#333" fill="none"/><path d="M815.5 1073.7v-20M795.5 1063.7h20" stroke="#333" fill="#fff"/><path d="M835 516.72l-10 20-10-20" stroke="#333" fill="#fff" fill-opacity="0"/><path d="M825 516.72v20" stroke="#333" fill="#fff"/><path d="M860 1068a8 8 0 0 1 8-8h244a8 8 0 0 1 8 8v216a8 8 0 0 1-8 8H868a8 8 0 0 1-8-8z" fill="#fff"/><path d="M860 1068a8 8 0 0 1 8-8h244a8 8 0 0 1 8 8v216a8 8 0 0 1-8 8H868a8 8 0 0 1-8-8zM860 1100h260M990 1100v192" stroke="#333" fill="none"/><use xlink:href="#af" transform="matrix(1,0,0,1,870,1060) translate(75.57499999999999 23.6)"/><use xlink:href="#b" transform="matrix(1,0,0,1,865,1102.5) translate(53.025 17.1)"/><use xlink:href="#l" transform="matrix(1,0,0,1,995,1102.5) translate(38.575 17.1)"/><use xlink:href="#P" transform="matrix(1,0,0,1,865,1134.5) translate(22.549999999999997 17.1)"/><use xlink:href="#l" transform="matrix(1,0,0,1,995,1134.5) translate(38.575 17.1)"/><use xlink:href="#h" transform="matrix(1,0,0,1,865,1166.5) translate(25.549999999999997 17.1)"/><use xlink:href="#h" transform="matrix(1,0,0,1,995,1166.5) translate(25.549999999999997 17.1)"/><use xlink:href="#ag" transform="matrix(1,0,0,1,865,1198.5) translate(16.599999999999994 17.1)"/><use xlink:href="#n" transform="matrix(1,0,0,1,995,1198.5) translate(30.049999999999997 17.1)"/><use xlink:href="#ae" transform="matrix(1,0,0,1,865,1230.5) translate(18.525 17.1)"/><use xlink:href="#l" transform="matrix(1,0,0,1,995,1230.5) translate(38.575 17.1)"/><use xlink:href="#ac" transform="matrix(1,0,0,1,865,1262.5) translate(22.549999999999997 17.1)"/><use xlink:href="#l" transform="matrix(1,0,0,1,995,1262.5) translate(38.575 17.1)"/><path d="M839.6 1275.93h-8.08a12 12 0 0 1-12-12V1128a12 12 0 0 1 12-12h8.6" stroke="#333" fill="none"/><path d="M839.6 1265.93v20M859.6 1275.93h-20" stroke="#333" fill="#fff"/><path d="M859.3 1126l-20-10 20-10" stroke="#333" fill="#fff" fill-opacity="0"/><path d="M859.3 1116h-20" stroke="#333" fill="#fff"/><path d="M839.58 1244H317a12 12 0 0 1-12-12v-208.78" stroke="#333" fill="none"/><path d="M839.58 1234v20M859.58 1244h-20" stroke="#333" fill="#fff"/><path d="M315 1004.03l-10 20-10-20" stroke="#333" fill="#fff" fill-opacity="0"/><path d="M305 1004.03v20" stroke="#333" fill="#fff"/><path d="M1140.44 1148H1323a12 12 0 0 0 12-12V851.72" stroke="#333" fill="none"/><path d="M1140.44 1158v-20M1120.44 1148h20" stroke="#333" fill="#fff"/><path d="M1345 832.53l-10 20-10-20" stroke="#333" fill="#fff" fill-opacity="0"/><path d="M1335 832.53v20" stroke="#333" fill="#fff"/><path d="M1205 888a8 8 0 0 1 8-8h244a8 8 0 0 1 8 8v184a8 8 0 0 1-8 8h-244a8 8 0 0 1-8-8z" fill="#fff"/><path d="M1205 888a8 8 0 0 1 8-8h244a8 8 0 0 1 8 8v184a8 8 0 0 1-8 8h-244a8 8 0 0 1-8-8zM1205 920h260M1335 920v160" stroke="#333" fill="none"/><use xlink:href="#ah" transform="matrix(1,0,0,1,1215,880) translate(95.55 23.6)"/><use xlink:href="#b" transform="matrix(1,0,0,1,1210,922.5) translate(53.025 17.1)"/><use xlink:href="#l" transform="matrix(1,0,0,1,1340,922.5) translate(38.575 17.1)"/><use xlink:href="#ai" transform="matrix(1,0,0,1,1210,954.5) translate(3.5999999999999943 17.1)"/><use xlink:href="#l" transform="matrix(1,0,0,1,1340,954.5) translate(38.575 17.1)"/><use xlink:href="#d" transform="matrix(1,0,0,1,1210,986.5) translate(43 17.1)"/><use xlink:href="#n" transform="matrix(1,0,0,1,1340,986.5) translate(30.049999999999997 17.1)"/><use xlink:href="#aj" transform="matrix(1,0,0,1,1210,1018.5) translate(38 17.1)"/><use xlink:href="#w" transform="matrix(1,0,0,1,1340,1018.5) translate(3.6499999999999986 17.1)"/><use xlink:href="#M" transform="matrix(1,0,0,1,1210,1050.5) translate(39.525 17.1)"/><use xlink:href="#p" transform="matrix(1,0,0,1,1340,1050.5) translate(43.525 17.1)"/><path d="M1184.54 967.96H1002a12 12 0 0 0-12 12v60.18" stroke="#333" fill="none"/><path d="M1184.54 957.96v20M1204.54 967.96h-20" stroke="#333" fill="#fff"/><path d="M980 1059.33l10-20 10 20" stroke="#333" fill="#fff" fill-opacity="0"/><path d="M990 1059.33v-20" stroke="#333" fill="#fff"/><path d="M1165.5 783.88a4.5 4.5 0 0 1 4.5 4.5v135.46a12 12 0 0 0 12 12h3.1" stroke="#333" fill="none"/><path d="M1165.5 793.88v-20M1145.5 783.88h20" stroke="#333" fill="#fff"/><path d="M1204.3 945.84l-20-10 20-10" stroke="#333" fill="#fff" fill-opacity="0"/><path d="M1204.3 935.84h-20" stroke="#333" fill="#fff"/><path d="M1185 172a8 8 0 0 1 8-8h284a8 8 0 0 1 8 8v120a8 8 0 0 1-8 8h-284a8 8 0 0 1-8-8z" fill="#fff"/><path d="M1185 172a8 8 0 0 1 8-8h284a8 8 0 0 1 8 8v120a8 8 0 0 1-8 8h-284a8 8 0 0 1-8-8zM1185 204h300M1335 204v96" stroke="#333" fill="none"/><use xlink:href="#k" transform="matrix(1,0,0,1,1195,164) translate(113.025 23.6)"/><use xlink:href="#b" transform="matrix(1,0,0,1,1190,206.5) translate(63.025 17.1)"/><use xlink:href="#l" transform="matrix(1,0,0,1,1340,206.5) translate(48.575 17.1)"/><use xlink:href="#Z" transform="matrix(1,0,0,1,1190,238.5) translate(47.525 17.1)"/><use xlink:href="#n" transform="matrix(1,0,0,1,1340,238.5) translate(40.05 17.1)"/><use xlink:href="#ak" transform="matrix(1,0,0,1,1190,270.5) translate(49.05 17.1)"/><use xlink:href="#p" transform="matrix(1,0,0,1,1340,270.5) translate(53.525 17.1)"/><path d="M1025.43 179.8h57.55a12 12 0 0 1 12 12v16.16a12 12 0 0 0 12 12h58.15" stroke="#333" fill="none"/><path d="M1025.43 189.8v-20M1005.43 179.8h20" stroke="#333" fill="#fff"/><path d="M1184.32 229.96l-20-10 20-10" stroke="#333" fill="#fff" fill-opacity="0"/><path d="M1184.32 219.96h-20" stroke="#333" fill="#fff"/><defs><path fill="#333" d="M115-194c55 1 70 41 70 98S169 2 115 4C84 4 66-9 55-30l1 105H24l-1-265h31l2 30c10-21 28-34 59-34zm-8 174c40 0 45-34 45-75s-6-73-45-74c-42 0-51 32-51 76 0 43 10 73 51 73" id="al"/><path fill="#333" d="M114-163C36-179 61-72 57 0H25l-1-190h30c1 12-1 29 2 39 6-27 23-49 58-41v29" id="am"/><path fill="#333" d="M100-194c62-1 85 37 85 99 1 63-27 99-86 99S16-35 15-95c0-66 28-99 85-99zM99-20c44 1 53-31 53-75 0-43-8-75-51-75s-53 32-53 75 10 74 51 75" id="an"/><path fill="#333" d="M85-194c31 0 48 13 60 33l-1-100h32l1 261h-30c-2-10 0-23-3-31C134-8 116 4 85 4 32 4 16-35 15-94c0-66 23-100 70-100zm9 24c-40 0-46 34-46 75 0 40 6 74 45 74 42 0 51-32 51-76 0-42-9-74-50-73" id="ao"/><path fill="#333" d="M84 4C-5 8 30-112 23-190h32v120c0 31 7 50 39 49 72-2 45-101 50-169h31l1 190h-30c-1-10 1-25-2-33-11 22-28 36-60 37" id="ap"/><path fill="#333" d="M96-169c-40 0-48 33-48 73s9 75 48 75c24 0 41-14 43-38l32 2c-6 37-31 61-74 61-59 0-76-41-82-99-10-93 101-131 147-64 4 7 5 14 7 22l-32 3c-4-21-16-35-41-35" id="aq"/><path fill="#333" d="M59-47c-2 24 18 29 38 22v24C64 9 27 4 27-40v-127H5v-23h24l9-43h21v43h35v23H59v120" id="ar"/><g id="a"><use transform="matrix(0.05,0,0,0.05,0,0)" xlink:href="#al"/><use transform="matrix(0.05,0,0,0.05,10,0)" xlink:href="#am"/><use transform="matrix(0.05,0,0,0.05,15.949999999999998,0)" xlink:href="#an"/><use transform="matrix(0.05,0,0,0.05,25.950000000000003,0)" xlink:href="#ao"/><use transform="matrix(0.05,0,0,0.05,35.95,0)" xlink:href="#ap"/><use transform="matrix(0.05,0,0,0.05,45.95,0)" xlink:href="#aq"/><use transform="matrix(0.05,0,0,0.05,54.95,0)" xlink:href="#ar"/></g><path fill="#333" d="M24-231v-30h32v30H24zM24 0v-190h32V0H24" id="as"/><g id="b"><use transform="matrix(0.05,0,0,0.05,0,0)" xlink:href="#as"/><use transform="matrix(0.05,0,0,0.05,3.95,0)" xlink:href="#ao"/></g><path d="M135-143c-3-34-86-38-87 0 15 53 115 12 119 90S17 21 10-45l28-5c4 36 97 45 98 0-10-56-113-15-118-90-4-57 82-63 122-42 12 7 21 19 24 35" id="at"/><path d="M100-194c63 0 86 42 84 106H49c0 40 14 67 53 68 26 1 43-12 49-29l28 8c-11 28-37 45-77 45C44 4 14-33 15-96c1-61 26-98 85-98zm52 81c6-60-76-77-97-28-3 7-6 17-6 28h103" id="au"/><path d="M114-163C36-179 61-72 57 0H25l-1-190h30c1 12-1 29 2 39 6-27 23-49 58-41v29" id="av"/><path d="M24-231v-30h32v30H24zM24 0v-190h32V0H24" id="aw"/><path d="M141-36C126-15 110 5 73 4 37 3 15-17 15-53c-1-64 63-63 125-63 3-35-9-54-41-54-24 1-41 7-42 31l-33-3c5-37 33-52 76-52 45 0 72 20 72 64v82c-1 20 7 32 28 27v20c-31 9-61-2-59-35zM48-53c0 20 12 33 32 33 41-3 63-29 60-74-43 2-92-5-92 41" id="ax"/><path d="M24 0v-261h32V0H24" id="ay"/><g id="c"><use transform="matrix(0.048148148148148155,0,0,0.048148148148148155,0,0)" xlink:href="#at"/><use transform="matrix(0.048148148148148155,0,0,0.048148148148148155,8.666666666666668,0)" xlink:href="#au"/><use transform="matrix(0.048148148148148155,0,0,0.048148148148148155,18.296296296296298,0)" xlink:href="#av"/><use transform="matrix(0.048148148148148155,0,0,0.048148148148148155,24.02592592592593,0)" xlink:href="#aw"/><use transform="matrix(0.048148148148148155,0,0,0.048148148148148155,27.829629629629633,0)" xlink:href="#ax"/><use transform="matrix(0.048148148148148155,0,0,0.048148148148148155,37.45925925925926,0)" xlink:href="#ay"/></g><path fill="#333" d="M179-190L93 31C79 59 56 82 12 73V49c39 6 53-20 64-50L1-190h34L92-34l54-156h33" id="az"/><path fill="#333" d="M100-194c63 0 86 42 84 106H49c0 40 14 67 53 68 26 1 43-12 49-29l28 8c-11 28-37 45-77 45C44 4 14-33 15-96c1-61 26-98 85-98zm52 81c6-60-76-77-97-28-3 7-6 17-6 28h103" id="aA"/><g id="d"><use transform="matrix(0.05,0,0,0.05,0,0)" xlink:href="#ar"/><use transform="matrix(0.05,0,0,0.05,5,0)" xlink:href="#az"/><use transform="matrix(0.05,0,0,0.05,14,0)" xlink:href="#al"/><use transform="matrix(0.05,0,0,0.05,24,0)" xlink:href="#aA"/></g><path d="M108 0H70L1-190h34L89-25l56-165h34" id="aB"/><path d="M96-169c-40 0-48 33-48 73s9 75 48 75c24 0 41-14 43-38l32 2c-6 37-31 61-74 61-59 0-76-41-82-99-10-93 101-131 147-64 4 7 5 14 7 22l-32 3c-4-21-16-35-41-35" id="aC"/><path d="M106-169C34-169 62-67 57 0H25v-261h32l-1 103c12-21 28-36 61-36 89 0 53 116 60 194h-32v-121c2-32-8-49-39-48" id="aD"/><g id="e"><use transform="matrix(0.048148148148148155,0,0,0.048148148148148155,0,0)" xlink:href="#aB"/><use transform="matrix(0.048148148148148155,0,0,0.048148148148148155,8.666666666666668,0)" xlink:href="#ax"/><use transform="matrix(0.048148148148148155,0,0,0.048148148148148155,18.296296296296298,0)" xlink:href="#av"/><use transform="matrix(0.048148148148148155,0,0,0.048148148148148155,24.02592592592593,0)" xlink:href="#aC"/><use transform="matrix(0.048148148148148155,0,0,0.048148148148148155,32.6925925925926,0)" xlink:href="#aD"/><use transform="matrix(0.048148148148148155,0,0,0.048148148148148155,42.32222222222223,0)" xlink:href="#ax"/><use transform="matrix(0.048148148148148155,0,0,0.048148148148148155,51.951851851851856,0)" xlink:href="#av"/></g><path fill="#333" d="M24 0v-261h32V0H24" id="aE"/><path fill="#333" d="M108 0H70L1-190h34L89-25l56-165h34" id="aF"/><g id="f"><use transform="matrix(0.05,0,0,0.05,0,0)" xlink:href="#ao"/><use transform="matrix(0.05,0,0,0.05,10,0)" xlink:href="#aA"/><use transform="matrix(0.05,0,0,0.05,20,0)" xlink:href="#aE"/><use transform="matrix(0.05,0,0,0.05,23.95,0)" xlink:href="#as"/><use transform="matrix(0.05,0,0,0.05,27.899999999999995,0)" xlink:href="#aF"/><use transform="matrix(0.05,0,0,0.05,36.9,0)" xlink:href="#aA"/><use transform="matrix(0.05,0,0,0.05,46.9,0)" xlink:href="#am"/><use transform="matrix(0.05,0,0,0.05,52.85,0)" xlink:href="#az"/></g><path fill="#333" d="M117-194c89-4 53 116 60 194h-32v-121c0-31-8-49-39-48C34-167 62-67 57 0H25l-1-190h30c1 10-1 24 2 32 11-22 29-35 61-36" id="aG"/><path fill="#333" d="M141 0L90-78 38 0H4l68-98-65-92h35l48 74 47-74h35l-64 92 68 98h-35" id="aH"/><path fill="#333" d="M-5 72V49h209v23H-5" id="aI"/><path fill="#333" d="M141-36C126-15 110 5 73 4 37 3 15-17 15-53c-1-64 63-63 125-63 3-35-9-54-41-54-24 1-41 7-42 31l-33-3c5-37 33-52 76-52 45 0 72 20 72 64v82c-1 20 7 32 28 27v20c-31 9-61-2-59-35zM48-53c0 20 12 33 32 33 41-3 63-29 60-74-43 2-92-5-92 41" id="aJ"/><path fill="#333" d="M210-169c-67 3-38 105-44 169h-31v-121c0-29-5-50-35-48C34-165 62-65 56 0H25l-1-190h30c1 10-1 24 2 32 10-44 99-50 107 0 11-21 27-35 58-36 85-2 47 119 55 194h-31v-121c0-29-5-49-35-48" id="aK"/><g id="g"><use transform="matrix(0.05,0,0,0.05,0,0)" xlink:href="#as"/><use transform="matrix(0.05,0,0,0.05,3.95,0)" xlink:href="#aG"/><use transform="matrix(0.05,0,0,0.05,13.949999999999998,0)" xlink:href="#ao"/><use transform="matrix(0.05,0,0,0.05,23.95,0)" xlink:href="#aA"/><use transform="matrix(0.05,0,0,0.05,33.95,0)" xlink:href="#aH"/><use transform="matrix(0.05,0,0,0.05,42.95,0)" xlink:href="#aA"/><use transform="matrix(0.05,0,0,0.05,52.95,0)" xlink:href="#ao"/><use transform="matrix(0.05,0,0,0.05,62.95,0)" xlink:href="#aI"/><use transform="matrix(0.05,0,0,0.05,72.95,0)" xlink:href="#ao"/><use transform="matrix(0.05,0,0,0.05,82.95,0)" xlink:href="#aJ"/><use transform="matrix(0.05,0,0,0.05,92.95,0)" xlink:href="#ar"/><use transform="matrix(0.05,0,0,0.05,97.95,0)" xlink:href="#aA"/><use transform="matrix(0.05,0,0,0.05,107.95,0)" xlink:href="#ar"/><use transform="matrix(0.05,0,0,0.05,112.95,0)" xlink:href="#as"/><use transform="matrix(0.05,0,0,0.05,116.9,0)" xlink:href="#aK"/><use transform="matrix(0.05,0,0,0.05,131.85,0)" xlink:href="#aA"/></g><g id="h"><use transform="matrix(0.05,0,0,0.05,0,0)" xlink:href="#ao"/><use transform="matrix(0.05,0,0,0.05,10,0)" xlink:href="#aJ"/><use transform="matrix(0.05,0,0,0.05,20,0)" xlink:href="#ar"/><use transform="matrix(0.05,0,0,0.05,25,0)" xlink:href="#aA"/><use transform="matrix(0.05,0,0,0.05,35,0)" xlink:href="#ar"/><use transform="matrix(0.05,0,0,0.05,40,0)" xlink:href="#as"/><use transform="matrix(0.05,0,0,0.05,43.95,0)" xlink:href="#aK"/><use transform="matrix(0.05,0,0,0.05,58.900000000000006,0)" xlink:href="#aA"/></g><path fill="#333" d="M177-190C167-65 218 103 67 71c-23-6-38-20-44-43l32-5c15 47 100 32 89-28v-30C133-14 115 1 83 1 29 1 15-40 15-95c0-56 16-97 71-98 29-1 48 16 59 35 1-10 0-23 2-32h30zM94-22c36 0 50-32 50-73 0-42-14-75-50-75-39 0-46 34-46 75s6 73 46 73" id="aL"/><g id="i"><use transform="matrix(0.05,0,0,0.05,0,0)" xlink:href="#as"/><use transform="matrix(0.05,0,0,0.05,3.95,0)" xlink:href="#aK"/><use transform="matrix(0.05,0,0,0.05,18.900000000000002,0)" xlink:href="#aJ"/><use transform="matrix(0.05,0,0,0.05,28.900000000000002,0)" xlink:href="#aL"/><use transform="matrix(0.05,0,0,0.05,38.900000000000006,0)" xlink:href="#aA"/></g><g id="j"><use transform="matrix(0.05,0,0,0.05,0,0)" xlink:href="#aA"/><use transform="matrix(0.05,0,0,0.05,10,0)" xlink:href="#aH"/><use transform="matrix(0.05,0,0,0.05,19,0)" xlink:href="#ar"/><use transform="matrix(0.05,0,0,0.05,24,0)" xlink:href="#aA"/><use transform="matrix(0.05,0,0,0.05,34,0)" xlink:href="#am"/><use transform="matrix(0.05,0,0,0.05,39.95,0)" xlink:href="#aG"/><use transform="matrix(0.05,0,0,0.05,49.95,0)" xlink:href="#aJ"/><use transform="matrix(0.05,0,0,0.05,59.95,0)" xlink:href="#aE"/><use transform="matrix(0.05,0,0,0.05,63.900000000000006,0)" xlink:href="#aI"/><use transform="matrix(0.05,0,0,0.05,73.9,0)" xlink:href="#as"/><use transform="matrix(0.05,0,0,0.05,77.85000000000001,0)" xlink:href="#ao"/></g><path fill="#333" d="M135-143c-3-34-86-38-87 0 15 53 115 12 119 90S17 21 10-45l28-5c4 36 97 45 98 0-10-56-113-15-118-90-4-57 82-63 122-42 12 7 21 19 24 35" id="aM"/><g id="k"><use transform="matrix(0.05,0,0,0.05,0,0)" xlink:href="#aM"/><use transform="matrix(0.05,0,0,0.05,9,0)" xlink:href="#an"/><use transform="matrix(0.05,0,0,0.05,19,0)" xlink:href="#ap"/><use transform="matrix(0.05,0,0,0.05,29,0)" xlink:href="#am"/><use transform="matrix(0.05,0,0,0.05,34.95,0)" xlink:href="#aq"/><use transform="matrix(0.05,0,0,0.05,43.95,0)" xlink:href="#aA"/></g><g id="l"><use transform="matrix(0.05,0,0,0.05,0,0)" xlink:href="#aM"/><use transform="matrix(0.05,0,0,0.05,9,0)" xlink:href="#aA"/><use transform="matrix(0.05,0,0,0.05,19,0)" xlink:href="#am"/><use transform="matrix(0.05,0,0,0.05,24.95,0)" xlink:href="#as"/><use transform="matrix(0.05,0,0,0.05,28.899999999999995,0)" xlink:href="#aJ"/><use transform="matrix(0.05,0,0,0.05,38.9,0)" xlink:href="#aE"/></g><g id="m"><use transform="matrix(0.05,0,0,0.05,0,0)" xlink:href="#aM"/><use transform="matrix(0.05,0,0,0.05,9,0)" xlink:href="#aJ"/><use transform="matrix(0.05,0,0,0.05,19,0)" xlink:href="#ar"/></g><path fill="#333" d="M106-169C34-169 62-67 57 0H25v-261h32l-1 103c12-21 28-36 61-36 89 0 53 116 60 194h-32v-121c2-32-8-49-39-48" id="aN"/><g id="n"><use transform="matrix(0.05,0,0,0.05,0,0)" xlink:href="#aF"/><use transform="matrix(0.05,0,0,0.05,9,0)" xlink:href="#aJ"/><use transform="matrix(0.05,0,0,0.05,19,0)" xlink:href="#am"/><use transform="matrix(0.05,0,0,0.05,24.95,0)" xlink:href="#aq"/><use transform="matrix(0.05,0,0,0.05,33.95,0)" xlink:href="#aN"/><use transform="matrix(0.05,0,0,0.05,43.95,0)" xlink:href="#aJ"/><use transform="matrix(0.05,0,0,0.05,53.95,0)" xlink:href="#am"/></g><g id="o"><use transform="matrix(0.05,0,0,0.05,0,0)" xlink:href="#aq"/><use transform="matrix(0.05,0,0,0.05,9,0)" xlink:href="#aJ"/><use transform="matrix(0.05,0,0,0.05,19,0)" xlink:href="#al"/><use transform="matrix(0.05,0,0,0.05,29,0)" xlink:href="#ar"/><use transform="matrix(0.05,0,0,0.05,34,0)" xlink:href="#ap"/><use transform="matrix(0.05,0,0,0.05,44,0)" xlink:href="#am"/><use transform="matrix(0.05,0,0,0.05,49.95,0)" xlink:href="#aA"/><use transform="matrix(0.05,0,0,0.05,59.95,0)" xlink:href="#aI"/><use transform="matrix(0.05,0,0,0.05,69.95,0)" xlink:href="#aq"/><use transform="matrix(0.05,0,0,0.05,78.95,0)" xlink:href="#an"/><use transform="matrix(0.05,0,0,0.05,88.95,0)" xlink:href="#aG"/><use transform="matrix(0.05,0,0,0.05,98.95,0)" xlink:href="#ao"/><use transform="matrix(0.05,0,0,0.05,108.95,0)" xlink:href="#as"/><use transform="matrix(0.05,0,0,0.05,112.9,0)" xlink:href="#ar"/><use transform="matrix(0.05,0,0,0.05,117.9,0)" xlink:href="#as"/><use transform="matrix(0.05,0,0,0.05,121.85000000000001,0)" xlink:href="#an"/><use transform="matrix(0.05,0,0,0.05,131.85000000000002,0)" xlink:href="#aG"/><use transform="matrix(0.05,0,0,0.05,141.85000000000002,0)" xlink:href="#aM"/></g><path fill="#333" d="M24-231v-30h32v30H24zM-9 49c24 4 33-6 33-30v-209h32V24c2 40-23 58-65 49V49" id="aO"/><g id="p"><use transform="matrix(0.05,0,0,0.05,0,0)" xlink:href="#aO"/><use transform="matrix(0.05,0,0,0.05,3.95,0)" xlink:href="#aM"/><use transform="matrix(0.05,0,0,0.05,12.949999999999998,0)" xlink:href="#an"/><use transform="matrix(0.05,0,0,0.05,22.95,0)" xlink:href="#aG"/></g><g id="q"><use transform="matrix(0.05,0,0,0.05,0,0)" xlink:href="#aq"/><use transform="matrix(0.05,0,0,0.05,9,0)" xlink:href="#aJ"/><use transform="matrix(0.05,0,0,0.05,19,0)" xlink:href="#al"/><use transform="matrix(0.05,0,0,0.05,29,0)" xlink:href="#ar"/><use transform="matrix(0.05,0,0,0.05,34,0)" xlink:href="#ap"/><use transform="matrix(0.05,0,0,0.05,44,0)" xlink:href="#am"/><use transform="matrix(0.05,0,0,0.05,49.95,0)" xlink:href="#aA"/><use transform="matrix(0.05,0,0,0.05,59.95,0)" xlink:href="#ao"/><use transform="matrix(0.05,0,0,0.05,69.95,0)" xlink:href="#aI"/><use transform="matrix(0.05,0,0,0.05,79.95,0)" xlink:href="#ao"/><use transform="matrix(0.05,0,0,0.05,89.95,0)" xlink:href="#aJ"/><use transform="matrix(0.05,0,0,0.05,99.95,0)" xlink:href="#ar"/><use transform="matrix(0.05,0,0,0.05,104.95,0)" xlink:href="#aA"/><use transform="matrix(0.05,0,0,0.05,114.95,0)" xlink:href="#ar"/><use transform="matrix(0.05,0,0,0.05,119.95,0)" xlink:href="#as"/><use transform="matrix(0.05,0,0,0.05,123.9,0)" xlink:href="#aK"/><use transform="matrix(0.05,0,0,0.05,138.85,0)" xlink:href="#aA"/></g><g id="r"><use transform="matrix(0.05,0,0,0.05,0,0)" xlink:href="#al"/><use transform="matrix(0.05,0,0,0.05,10,0)" xlink:href="#am"/><use transform="matrix(0.05,0,0,0.05,15.949999999999998,0)" xlink:href="#an"/><use transform="matrix(0.05,0,0,0.05,25.950000000000003,0)" xlink:href="#aq"/><use transform="matrix(0.05,0,0,0.05,34.95,0)" xlink:href="#aA"/><use transform="matrix(0.05,0,0,0.05,44.95,0)" xlink:href="#aM"/><use transform="matrix(0.05,0,0,0.05,53.95,0)" xlink:href="#aM"/><use transform="matrix(0.05,0,0,0.05,62.95,0)" xlink:href="#aA"/><use transform="matrix(0.05,0,0,0.05,72.95,0)" xlink:href="#ao"/><use transform="matrix(0.05,0,0,0.05,82.95,0)" xlink:href="#aI"/><use transform="matrix(0.05,0,0,0.05,92.95,0)" xlink:href="#ao"/><use transform="matrix(0.05,0,0,0.05,102.95,0)" xlink:href="#aJ"/><use transform="matrix(0.05,0,0,0.05,112.95,0)" xlink:href="#ar"/><use transform="matrix(0.05,0,0,0.05,117.95,0)" xlink:href="#aA"/><use transform="matrix(0.05,0,0,0.05,127.95,0)" xlink:href="#ar"/><use transform="matrix(0.05,0,0,0.05,132.95,0)" xlink:href="#as"/><use transform="matrix(0.05,0,0,0.05,136.89999999999998,0)" xlink:href="#aK"/><use transform="matrix(0.05,0,0,0.05,151.84999999999997,0)" xlink:href="#aA"/></g><g id="s"><use transform="matrix(0.05,0,0,0.05,0,0)" xlink:href="#aL"/><use transform="matrix(0.05,0,0,0.05,10,0)" xlink:href="#aA"/><use transform="matrix(0.05,0,0,0.05,20,0)" xlink:href="#an"/><use transform="matrix(0.05,0,0,0.05,30,0)" xlink:href="#aK"/><use transform="matrix(0.05,0,0,0.05,44.95,0)" xlink:href="#aA"/><use transform="matrix(0.05,0,0,0.05,54.95,0)" xlink:href="#ar"/><use transform="matrix(0.05,0,0,0.05,59.95,0)" xlink:href="#am"/><use transform="matrix(0.05,0,0,0.05,65.9,0)" xlink:href="#az"/></g><g id="t"><use transform="matrix(0.05,0,0,0.05,0,0)" xlink:href="#al"/><use transform="matrix(0.05,0,0,0.05,10,0)" xlink:href="#aJ"/><use transform="matrix(0.05,0,0,0.05,20,0)" xlink:href="#ar"/><use transform="matrix(0.05,0,0,0.05,25,0)" xlink:href="#aN"/></g><path fill="#333" d="M145-31C134-9 116 4 85 4 32 4 16-35 15-94c0-59 17-99 70-100 32-1 48 14 60 33 0-11-1-24 2-32h30l-1 268h-32zM93-21c41 0 51-33 51-76s-8-73-50-73c-40 0-46 35-46 75s5 74 45 74" id="aP"/><g id="u"><use transform="matrix(0.05,0,0,0.05,0,0)" xlink:href="#aP"/><use transform="matrix(0.05,0,0,0.05,10,0)" xlink:href="#aE"/><use transform="matrix(0.05,0,0,0.05,13.949999999999998,0)" xlink:href="#aI"/><use transform="matrix(0.05,0,0,0.05,23.95,0)" xlink:href="#al"/><use transform="matrix(0.05,0,0,0.05,33.95,0)" xlink:href="#aJ"/><use transform="matrix(0.05,0,0,0.05,43.95,0)" xlink:href="#ar"/><use transform="matrix(0.05,0,0,0.05,48.95,0)" xlink:href="#aN"/></g><g id="v"><use transform="matrix(0.05,0,0,0.05,0,0)" xlink:href="#an"/><use transform="matrix(0.05,0,0,0.05,10,0)" xlink:href="#ar"/><use transform="matrix(0.05,0,0,0.05,15,0)" xlink:href="#aN"/><use transform="matrix(0.05,0,0,0.05,25,0)" xlink:href="#aA"/><use transform="matrix(0.05,0,0,0.05,35,0)" xlink:href="#am"/><use transform="matrix(0.05,0,0,0.05,40.95,0)" xlink:href="#aI"/><use transform="matrix(0.05,0,0,0.05,50.95,0)" xlink:href="#al"/><use transform="matrix(0.05,0,0,0.05,60.95,0)" xlink:href="#aJ"/><use transform="matrix(0.05,0,0,0.05,70.95,0)" xlink:href="#ar"/><use transform="matrix(0.05,0,0,0.05,75.95,0)" xlink:href="#aN"/><use transform="matrix(0.05,0,0,0.05,85.95,0)" xlink:href="#aM"/></g><path fill="#333" d="M87 75C49 33 22-17 22-94c0-76 28-126 65-167h31c-38 41-64 92-64 168S80 34 118 75H87" id="aQ"/><path fill="#333" d="M33-261c38 41 65 92 65 168S71 34 33 75H2C39 34 66-17 66-93S39-220 2-261h31" id="aR"/><g id="w"><use transform="matrix(0.05,0,0,0.05,0,0)" xlink:href="#aJ"/><use transform="matrix(0.05,0,0,0.05,10,0)" xlink:href="#am"/><use transform="matrix(0.05,0,0,0.05,15.949999999999998,0)" xlink:href="#am"/><use transform="matrix(0.05,0,0,0.05,21.9,0)" xlink:href="#aJ"/><use transform="matrix(0.05,0,0,0.05,31.899999999999995,0)" xlink:href="#az"/><use transform="matrix(0.05,0,0,0.05,40.9,0)" xlink:href="#aQ"/><use transform="matrix(0.05,0,0,0.05,46.85,0)" xlink:href="#aF"/><use transform="matrix(0.05,0,0,0.05,55.85,0)" xlink:href="#aJ"/><use transform="matrix(0.05,0,0,0.05,65.85,0)" xlink:href="#am"/><use transform="matrix(0.05,0,0,0.05,71.8,0)" xlink:href="#aq"/><use transform="matrix(0.05,0,0,0.05,80.8,0)" xlink:href="#aN"/><use transform="matrix(0.05,0,0,0.05,90.8,0)" xlink:href="#aJ"/><use transform="matrix(0.05,0,0,0.05,100.8,0)" xlink:href="#am"/><use transform="matrix(0.05,0,0,0.05,106.75,0)" xlink:href="#aR"/></g><g id="x"><use transform="matrix(0.05,0,0,0.05,0,0)" xlink:href="#al"/><use transform="matrix(0.05,0,0,0.05,10,0)" xlink:href="#am"/><use transform="matrix(0.05,0,0,0.05,15.949999999999998,0)" xlink:href="#an"/><use transform="matrix(0.05,0,0,0.05,25.950000000000003,0)" xlink:href="#ao"/><use transform="matrix(0.05,0,0,0.05,35.95,0)" xlink:href="#ap"/><use transform="matrix(0.05,0,0,0.05,45.95,0)" xlink:href="#aq"/><use transform="matrix(0.05,0,0,0.05,54.95,0)" xlink:href="#ar"/><use transform="matrix(0.05,0,0,0.05,59.95,0)" xlink:href="#aI"/><use transform="matrix(0.05,0,0,0.05,69.95,0)" xlink:href="#as"/><use transform="matrix(0.05,0,0,0.05,73.9,0)" xlink:href="#ao"/></g><g id="y"><use transform="matrix(0.05,0,0,0.05,0,0)" xlink:href="#as"/><use transform="matrix(0.05,0,0,0.05,3.95,0)" xlink:href="#aK"/><use transform="matrix(0.05,0,0,0.05,18.900000000000002,0)" xlink:href="#aJ"/><use transform="matrix(0.05,0,0,0.05,28.900000000000002,0)" xlink:href="#aL"/><use transform="matrix(0.05,0,0,0.05,38.900000000000006,0)" xlink:href="#aA"/><use transform="matrix(0.05,0,0,0.05,48.900000000000006,0)" xlink:href="#aI"/><use transform="matrix(0.05,0,0,0.05,58.900000000000006,0)" xlink:href="#al"/><use transform="matrix(0.05,0,0,0.05,68.9,0)" xlink:href="#aE"/><use transform="matrix(0.05,0,0,0.05,72.85000000000001,0)" xlink:href="#aJ"/><use transform="matrix(0.05,0,0,0.05,82.85000000000001,0)" xlink:href="#aG"/><use transform="matrix(0.05,0,0,0.05,92.85000000000001,0)" xlink:href="#aA"/><use transform="matrix(0.05,0,0,0.05,102.85000000000001,0)" xlink:href="#ar"/></g><g id="z"><use transform="matrix(0.05,0,0,0.05,0,0)" xlink:href="#aq"/><use transform="matrix(0.05,0,0,0.05,9,0)" xlink:href="#aE"/><use transform="matrix(0.05,0,0,0.05,12.949999999999998,0)" xlink:href="#an"/><use transform="matrix(0.05,0,0,0.05,22.95,0)" xlink:href="#ap"/><use transform="matrix(0.05,0,0,0.05,32.95,0)" xlink:href="#ao"/><use transform="matrix(0.05,0,0,0.05,42.95,0)" xlink:href="#aI"/><use transform="matrix(0.05,0,0,0.05,52.95,0)" xlink:href="#aK"/><use transform="matrix(0.05,0,0,0.05,67.9,0)" xlink:href="#aJ"/><use transform="matrix(0.05,0,0,0.05,77.9,0)" xlink:href="#al"/></g><g id="A"><use transform="matrix(0.05,0,0,0.05,0,0)" xlink:href="#as"/><use transform="matrix(0.05,0,0,0.05,3.95,0)" xlink:href="#aK"/><use transform="matrix(0.05,0,0,0.05,18.900000000000002,0)" xlink:href="#aJ"/><use transform="matrix(0.05,0,0,0.05,28.900000000000002,0)" xlink:href="#aL"/><use transform="matrix(0.05,0,0,0.05,38.900000000000006,0)" xlink:href="#aA"/><use transform="matrix(0.05,0,0,0.05,48.900000000000006,0)" xlink:href="#aI"/><use transform="matrix(0.05,0,0,0.05,58.900000000000006,0)" xlink:href="#ao"/><use transform="matrix(0.05,0,0,0.05,68.9,0)" xlink:href="#aL"/></g><path fill="#333" d="M115-194c53 0 69 39 70 98 0 66-23 100-70 100C84 3 66-7 56-30L54 0H23l1-261h32v101c10-23 28-34 59-34zm-8 174c40 0 45-34 45-75 0-40-5-75-45-74-42 0-51 32-51 76 0 43 10 73 51 73" id="aS"/><g id="B"><use transform="matrix(0.05,0,0,0.05,0,0)" xlink:href="#aM"/><use transform="matrix(0.05,0,0,0.05,9,0)" xlink:href="#ar"/><use transform="matrix(0.05,0,0,0.05,14,0)" xlink:href="#aA"/><use transform="matrix(0.05,0,0,0.05,24,0)" xlink:href="#am"/><use transform="matrix(0.05,0,0,0.05,29.950000000000003,0)" xlink:href="#aA"/><use transform="matrix(0.05,0,0,0.05,39.95,0)" xlink:href="#an"/><use transform="matrix(0.05,0,0,0.05,49.95,0)" xlink:href="#aI"/><use transform="matrix(0.05,0,0,0.05,59.95,0)" xlink:href="#aG"/><use transform="matrix(0.05,0,0,0.05,69.95,0)" xlink:href="#ap"/><use transform="matrix(0.05,0,0,0.05,79.95,0)" xlink:href="#aK"/><use transform="matrix(0.05,0,0,0.05,94.9,0)" xlink:href="#aS"/><use transform="matrix(0.05,0,0,0.05,104.9,0)" xlink:href="#aA"/><use transform="matrix(0.05,0,0,0.05,114.9,0)" xlink:href="#am"/></g><g id="C"><use transform="matrix(0.05,0,0,0.05,0,0)" xlink:href="#as"/><use transform="matrix(0.05,0,0,0.05,3.95,0)" xlink:href="#aG"/><use transform="matrix(0.05,0,0,0.05,13.949999999999998,0)" xlink:href="#ar"/></g><path fill="#333" d="M9 0v-24l116-142H16v-24h144v24L44-24h123V0H9" id="aT"/><g id="D"><use transform="matrix(0.05,0,0,0.05,0,0)" xlink:href="#as"/><use transform="matrix(0.05,0,0,0.05,3.95,0)" xlink:href="#aK"/><use transform="matrix(0.05,0,0,0.05,18.900000000000002,0)" xlink:href="#aJ"/><use transform="matrix(0.05,0,0,0.05,28.900000000000002,0)" xlink:href="#aL"/><use transform="matrix(0.05,0,0,0.05,38.900000000000006,0)" xlink:href="#aA"/><use transform="matrix(0.05,0,0,0.05,48.900000000000006,0)" xlink:href="#aI"/><use transform="matrix(0.05,0,0,0.05,58.900000000000006,0)" xlink:href="#aG"/><use transform="matrix(0.05,0,0,0.05,68.9,0)" xlink:href="#ar"/><use transform="matrix(0.05,0,0,0.05,73.9,0)" xlink:href="#aM"/><use transform="matrix(0.05,0,0,0.05,82.9,0)" xlink:href="#an"/><use transform="matrix(0.05,0,0,0.05,92.9,0)" xlink:href="#aK"/><use transform="matrix(0.05,0,0,0.05,107.85000000000001,0)" xlink:href="#aT"/></g><g id="E"><use transform="matrix(0.05,0,0,0.05,0,0)" xlink:href="#aN"/><use transform="matrix(0.05,0,0,0.05,10,0)" xlink:href="#aJ"/><use transform="matrix(0.05,0,0,0.05,20,0)" xlink:href="#aM"/><use transform="matrix(0.05,0,0,0.05,29,0)" xlink:href="#aN"/></g><g id="F"><use transform="matrix(0.05,0,0,0.05,0,0)" xlink:href="#aM"/><use transform="matrix(0.05,0,0,0.05,9,0)" xlink:href="#aq"/><use transform="matrix(0.05,0,0,0.05,18,0)" xlink:href="#aA"/><use transform="matrix(0.05,0,0,0.05,28,0)" xlink:href="#aG"/><use transform="matrix(0.05,0,0,0.05,38,0)" xlink:href="#aA"/></g><g id="G"><use transform="matrix(0.05,0,0,0.05,0,0)" xlink:href="#aM"/><use transform="matrix(0.05,0,0,0.05,9,0)" xlink:href="#aA"/><use transform="matrix(0.05,0,0,0.05,19,0)" xlink:href="#aE"/><use transform="matrix(0.05,0,0,0.05,22.95,0)" xlink:href="#aA"/><use transform="matrix(0.05,0,0,0.05,32.95,0)" xlink:href="#aq"/><use transform="matrix(0.05,0,0,0.05,41.95,0)" xlink:href="#ar"/><use transform="matrix(0.05,0,0,0.05,46.95,0)" xlink:href="#aA"/><use transform="matrix(0.05,0,0,0.05,56.95,0)" xlink:href="#ao"/></g><g id="H"><use transform="matrix(0.05,0,0,0.05,0,0)" xlink:href="#aS"/><use transform="matrix(0.05,0,0,0.05,10,0)" xlink:href="#an"/><use transform="matrix(0.05,0,0,0.05,20,0)" xlink:href="#an"/><use transform="matrix(0.05,0,0,0.05,30,0)" xlink:href="#aE"/></g><path fill="#333" d="M101-234c-31-9-42 10-38 44h38v23H63V0H32v-167H5v-23h27c-7-52 17-82 69-68v24" id="aU"/><g id="I"><use transform="matrix(0.05,0,0,0.05,0,0)" xlink:href="#ao"/><use transform="matrix(0.05,0,0,0.05,10,0)" xlink:href="#aA"/><use transform="matrix(0.05,0,0,0.05,20,0)" xlink:href="#aU"/><use transform="matrix(0.05,0,0,0.05,25,0)" xlink:href="#aA"/><use transform="matrix(0.05,0,0,0.05,35,0)" xlink:href="#aq"/><use transform="matrix(0.05,0,0,0.05,44,0)" xlink:href="#ar"/><use transform="matrix(0.05,0,0,0.05,49,0)" xlink:href="#aM"/></g><g id="J"><use transform="matrix(0.05,0,0,0.05,0,0)" xlink:href="#aF"/><use transform="matrix(0.05,0,0,0.05,9,0)" xlink:href="#aA"/><use transform="matrix(0.05,0,0,0.05,19,0)" xlink:href="#aq"/><use transform="matrix(0.05,0,0,0.05,28,0)" xlink:href="#ar"/><use transform="matrix(0.05,0,0,0.05,33,0)" xlink:href="#an"/><use transform="matrix(0.05,0,0,0.05,43,0)" xlink:href="#am"/></g><g id="K"><use transform="matrix(0.05,0,0,0.05,0,0)" xlink:href="#aq"/><use transform="matrix(0.05,0,0,0.05,9,0)" xlink:href="#aE"/><use transform="matrix(0.05,0,0,0.05,12.949999999999998,0)" xlink:href="#aJ"/><use transform="matrix(0.05,0,0,0.05,22.95,0)" xlink:href="#aM"/><use transform="matrix(0.05,0,0,0.05,31.950000000000003,0)" xlink:href="#aM"/><use transform="matrix(0.05,0,0,0.05,40.95,0)" xlink:href="#aI"/><use transform="matrix(0.05,0,0,0.05,50.95,0)" xlink:href="#as"/><use transform="matrix(0.05,0,0,0.05,54.900000000000006,0)" xlink:href="#ao"/></g><g id="L"><use transform="matrix(0.05,0,0,0.05,0,0)" xlink:href="#as"/><use transform="matrix(0.05,0,0,0.05,3.95,0)" xlink:href="#aK"/><use transform="matrix(0.05,0,0,0.05,18.900000000000002,0)" xlink:href="#aJ"/><use transform="matrix(0.05,0,0,0.05,28.900000000000002,0)" xlink:href="#aL"/><use transform="matrix(0.05,0,0,0.05,38.900000000000006,0)" xlink:href="#aA"/><use transform="matrix(0.05,0,0,0.05,48.900000000000006,0)" xlink:href="#aI"/><use transform="matrix(0.05,0,0,0.05,58.900000000000006,0)" xlink:href="#as"/><use transform="matrix(0.05,0,0,0.05,62.85,0)" xlink:href="#ao"/></g><g id="M"><use transform="matrix(0.05,0,0,0.05,0,0)" xlink:href="#an"/><use transform="matrix(0.05,0,0,0.05,10,0)" xlink:href="#ar"/><use transform="matrix(0.05,0,0,0.05,15,0)" xlink:href="#aN"/><use transform="matrix(0.05,0,0,0.05,25,0)" xlink:href="#aA"/><use transform="matrix(0.05,0,0,0.05,35,0)" xlink:href="#am"/></g><g id="N"><use transform="matrix(0.05,0,0,0.05,0,0)" xlink:href="#aF"/><use transform="matrix(0.05,0,0,0.05,9,0)" xlink:href="#aA"/><use transform="matrix(0.05,0,0,0.05,19,0)" xlink:href="#aq"/><use transform="matrix(0.05,0,0,0.05,28,0)" xlink:href="#ar"/><use transform="matrix(0.05,0,0,0.05,33,0)" xlink:href="#an"/><use transform="matrix(0.05,0,0,0.05,43,0)" xlink:href="#am"/><use transform="matrix(0.05,0,0,0.05,48.95,0)" xlink:href="#aI"/><use transform="matrix(0.05,0,0,0.05,58.95,0)" xlink:href="#aJ"/><use transform="matrix(0.05,0,0,0.05,68.95,0)" xlink:href="#ap"/><use transform="matrix(0.05,0,0,0.05,78.95,0)" xlink:href="#ar"/><use transform="matrix(0.05,0,0,0.05,83.95,0)" xlink:href="#aN"/><use transform="matrix(0.05,0,0,0.05,93.95,0)" xlink:href="#an"/><use transform="matrix(0.05,0,0,0.05,103.95,0)" xlink:href="#am"/></g><g id="O"><use transform="matrix(0.05,0,0,0.05,0,0)" xlink:href="#aF"/><use transform="matrix(0.05,0,0,0.05,9,0)" xlink:href="#aA"/><use transform="matrix(0.05,0,0,0.05,19,0)" xlink:href="#aq"/><use transform="matrix(0.05,0,0,0.05,28,0)" xlink:href="#ar"/><use transform="matrix(0.05,0,0,0.05,33,0)" xlink:href="#an"/><use transform="matrix(0.05,0,0,0.05,43,0)" xlink:href="#am"/><use transform="matrix(0.05,0,0,0.05,48.95,0)" xlink:href="#aI"/><use transform="matrix(0.05,0,0,0.05,58.95,0)" xlink:href="#as"/><use transform="matrix(0.05,0,0,0.05,62.900000000000006,0)" xlink:href="#ao"/></g><g id="P"><use transform="matrix(0.05,0,0,0.05,0,0)" xlink:href="#aJ"/><use transform="matrix(0.05,0,0,0.05,10,0)" xlink:href="#ap"/><use transform="matrix(0.05,0,0,0.05,20,0)" xlink:href="#ar"/><use transform="matrix(0.05,0,0,0.05,25,0)" xlink:href="#aN"/><use transform="matrix(0.05,0,0,0.05,35,0)" xlink:href="#an"/><use transform="matrix(0.05,0,0,0.05,45,0)" xlink:href="#am"/><use transform="matrix(0.05,0,0,0.05,50.95,0)" xlink:href="#aI"/><use transform="matrix(0.05,0,0,0.05,60.95,0)" xlink:href="#as"/><use transform="matrix(0.05,0,0,0.05,64.9,0)" xlink:href="#ao"/></g><g id="Q"><use transform="matrix(0.05,0,0,0.05,0,0)" xlink:href="#aK"/><use transform="matrix(0.05,0,0,0.05,14.950000000000001,0)" xlink:href="#an"/><use transform="matrix(0.05,0,0,0.05,24.950000000000003,0)" xlink:href="#ao"/><use transform="matrix(0.05,0,0,0.05,34.95,0)" xlink:href="#aA"/><use transform="matrix(0.05,0,0,0.05,44.95,0)" xlink:href="#aE"/><use transform="matrix(0.05,0,0,0.05,48.900000000000006,0)" xlink:href="#aI"/><use transform="matrix(0.05,0,0,0.05,58.900000000000006,0)" xlink:href="#as"/><use transform="matrix(0.05,0,0,0.05,62.85,0)" xlink:href="#ao"/></g><g id="R"><use transform="matrix(0.05,0,0,0.05,0,0)" xlink:href="#aF"/><use transform="matrix(0.05,0,0,0.05,9,0)" xlink:href="#aA"/><use transform="matrix(0.05,0,0,0.05,19,0)" xlink:href="#aq"/><use transform="matrix(0.05,0,0,0.05,28,0)" xlink:href="#ar"/><use transform="matrix(0.05,0,0,0.05,33,0)" xlink:href="#an"/><use transform="matrix(0.05,0,0,0.05,43,0)" xlink:href="#am"/><use transform="matrix(0.05,0,0,0.05,48.95,0)" xlink:href="#aI"/><use transform="matrix(0.05,0,0,0.05,58.95,0)" xlink:href="#aq"/><use transform="matrix(0.05,0,0,0.05,67.95,0)" xlink:href="#aE"/><use transform="matrix(0.05,0,0,0.05,71.9,0)" xlink:href="#aJ"/><use transform="matrix(0.05,0,0,0.05,81.9,0)" xlink:href="#aM"/><use transform="matrix(0.05,0,0,0.05,90.9,0)" xlink:href="#aM"/></g><g id="S"><use transform="matrix(0.05,0,0,0.05,0,0)" xlink:href="#aM"/><use transform="matrix(0.05,0,0,0.05,9,0)" xlink:href="#aN"/><use transform="matrix(0.05,0,0,0.05,19,0)" xlink:href="#an"/><use transform="matrix(0.05,0,0,0.05,29,0)" xlink:href="#am"/><use transform="matrix(0.05,0,0,0.05,34.95,0)" xlink:href="#ar"/><use transform="matrix(0.05,0,0,0.05,39.95,0)" xlink:href="#aI"/><use transform="matrix(0.05,0,0,0.05,49.95,0)" xlink:href="#ao"/><use transform="matrix(0.05,0,0,0.05,59.95,0)" xlink:href="#aA"/><use transform="matrix(0.05,0,0,0.05,69.95,0)" xlink:href="#aM"/><use transform="matrix(0.05,0,0,0.05,78.95,0)" xlink:href="#aq"/><use transform="matrix(0.05,0,0,0.05,87.95,0)" xlink:href="#ar"/><use transform="matrix(0.05,0,0,0.05,92.95,0)" xlink:href="#as"/><use transform="matrix(0.05,0,0,0.05,96.9,0)" xlink:href="#al"/><use transform="matrix(0.05,0,0,0.05,106.9,0)" xlink:href="#ar"/><use transform="matrix(0.05,0,0,0.05,111.9,0)" xlink:href="#as"/><use transform="matrix(0.05,0,0,0.05,115.85000000000001,0)" xlink:href="#an"/><use transform="matrix(0.05,0,0,0.05,125.85000000000001,0)" xlink:href="#aG"/></g><g id="T"><use transform="matrix(0.05,0,0,0.05,0,0)" xlink:href="#aE"/><use transform="matrix(0.05,0,0,0.05,3.95,0)" xlink:href="#an"/><use transform="matrix(0.05,0,0,0.05,13.949999999999998,0)" xlink:href="#aG"/><use transform="matrix(0.05,0,0,0.05,23.95,0)" xlink:href="#aL"/><use transform="matrix(0.05,0,0,0.05,33.95,0)" xlink:href="#aI"/><use transform="matrix(0.05,0,0,0.05,43.95,0)" xlink:href="#ao"/><use transform="matrix(0.05,0,0,0.05,53.95,0)" xlink:href="#aA"/><use transform="matrix(0.05,0,0,0.05,63.95,0)" xlink:href="#aM"/><use transform="matrix(0.05,0,0,0.05,72.95,0)" xlink:href="#aq"/><use transform="matrix(0.05,0,0,0.05,81.95,0)" xlink:href="#am"/><use transform="matrix(0.05,0,0,0.05,87.9,0)" xlink:href="#as"/><use transform="matrix(0.05,0,0,0.05,91.85000000000001,0)" xlink:href="#al"/><use transform="matrix(0.05,0,0,0.05,101.85000000000001,0)" xlink:href="#ar"/><use transform="matrix(0.05,0,0,0.05,106.85000000000001,0)" xlink:href="#as"/><use transform="matrix(0.05,0,0,0.05,110.80000000000001,0)" xlink:href="#an"/><use transform="matrix(0.05,0,0,0.05,120.80000000000001,0)" xlink:href="#aG"/></g><g id="U"><use transform="matrix(0.05,0,0,0.05,0,0)" xlink:href="#ar"/><use transform="matrix(0.05,0,0,0.05,5,0)" xlink:href="#aA"/><use transform="matrix(0.05,0,0,0.05,15,0)" xlink:href="#aH"/><use transform="matrix(0.05,0,0,0.05,24,0)" xlink:href="#ar"/></g><g id="V"><use transform="matrix(0.05,0,0,0.05,0,0)" xlink:href="#aq"/><use transform="matrix(0.05,0,0,0.05,9,0)" xlink:href="#an"/><use transform="matrix(0.05,0,0,0.05,19,0)" xlink:href="#aE"/><use transform="matrix(0.05,0,0,0.05,22.95,0)" xlink:href="#an"/><use transform="matrix(0.05,0,0,0.05,32.95,0)" xlink:href="#am"/></g><path fill="#333" d="M68-38c1 34 0 65-14 84H32c9-13 17-26 17-46H33v-38h35" id="aV"/><g id="W"><use transform="matrix(0.05,0,0,0.05,0,0)" xlink:href="#aJ"/><use transform="matrix(0.05,0,0,0.05,10,0)" xlink:href="#am"/><use transform="matrix(0.05,0,0,0.05,15.949999999999998,0)" xlink:href="#am"/><use transform="matrix(0.05,0,0,0.05,21.9,0)" xlink:href="#aJ"/><use transform="matrix(0.05,0,0,0.05,31.899999999999995,0)" xlink:href="#az"/><use transform="matrix(0.05,0,0,0.05,40.9,0)" xlink:href="#aQ"/><use transform="matrix(0.05,0,0,0.05,46.85,0)" xlink:href="#as"/><use transform="matrix(0.05,0,0,0.05,50.800000000000004,0)" xlink:href="#aG"/><use transform="matrix(0.05,0,0,0.05,60.800000000000004,0)" xlink:href="#ar"/><use transform="matrix(0.05,0,0,0.05,65.80000000000001,0)" xlink:href="#aV"/></g><path fill="#333" d="M126-127c33 6 58 20 58 59 0 88-139 92-164 29-3-8-5-16-6-25l32-3c6 27 21 44 54 44 32 0 52-15 52-46 0-38-36-46-79-43v-28c39 1 72-4 72-42 0-27-17-43-46-43-28 0-47 15-49 41l-32-3c6-42 35-63 81-64 48-1 79 21 79 65 0 36-21 52-52 59" id="aW"/><g id="X"><use transform="matrix(0.05,0,0,0.05,0,0)" xlink:href="#aW"/><use transform="matrix(0.05,0,0,0.05,10,0)" xlink:href="#aR"/></g><g id="Y"><use transform="matrix(0.05,0,0,0.05,0,0)" xlink:href="#aJ"/><use transform="matrix(0.05,0,0,0.05,10,0)" xlink:href="#ap"/><use transform="matrix(0.05,0,0,0.05,20,0)" xlink:href="#ar"/><use transform="matrix(0.05,0,0,0.05,25,0)" xlink:href="#aN"/><use transform="matrix(0.05,0,0,0.05,35,0)" xlink:href="#an"/><use transform="matrix(0.05,0,0,0.05,45,0)" xlink:href="#am"/></g><g id="Z"><use transform="matrix(0.05,0,0,0.05,0,0)" xlink:href="#aG"/><use transform="matrix(0.05,0,0,0.05,10,0)" xlink:href="#aJ"/><use transform="matrix(0.05,0,0,0.05,20,0)" xlink:href="#aK"/><use transform="matrix(0.05,0,0,0.05,34.95,0)" xlink:href="#aA"/></g><g id="aa"><use transform="matrix(0.05,0,0,0.05,0,0)" xlink:href="#aq"/><use transform="matrix(0.05,0,0,0.05,9,0)" xlink:href="#an"/><use transform="matrix(0.05,0,0,0.05,19,0)" xlink:href="#aG"/><use transform="matrix(0.05,0,0,0.05,29,0)" xlink:href="#ar"/><use transform="matrix(0.05,0,0,0.05,34,0)" xlink:href="#aJ"/><use transform="matrix(0.05,0,0,0.05,44,0)" xlink:href="#aq"/><use transform="matrix(0.05,0,0,0.05,53,0)" xlink:href="#ar"/><use transform="matrix(0.05,0,0,0.05,58,0)" xlink:href="#aM"/></g><g id="ab"><use transform="matrix(0.05,0,0,0.05,0,0)" xlink:href="#ao"/><use transform="matrix(0.05,0,0,0.05,10,0)" xlink:href="#aJ"/><use transform="matrix(0.05,0,0,0.05,20,0)" xlink:href="#ar"/><use transform="matrix(0.05,0,0,0.05,25,0)" xlink:href="#aJ"/><use transform="matrix(0.05,0,0,0.05,35,0)" xlink:href="#aM"/><use transform="matrix(0.05,0,0,0.05,44,0)" xlink:href="#aA"/><use transform="matrix(0.05,0,0,0.05,54,0)" xlink:href="#ar"/></g><g id="ac"><use transform="matrix(0.05,0,0,0.05,0,0)" xlink:href="#al"/><use transform="matrix(0.05,0,0,0.05,10,0)" xlink:href="#aJ"/><use transform="matrix(0.05,0,0,0.05,20,0)" xlink:href="#am"/><use transform="matrix(0.05,0,0,0.05,25.950000000000003,0)" xlink:href="#aA"/><use transform="matrix(0.05,0,0,0.05,35.95,0)" xlink:href="#aG"/><use transform="matrix(0.05,0,0,0.05,45.95,0)" xlink:href="#ar"/><use transform="matrix(0.05,0,0,0.05,50.95,0)" xlink:href="#aI"/><use transform="matrix(0.05,0,0,0.05,60.95,0)" xlink:href="#as"/><use transform="matrix(0.05,0,0,0.05,64.9,0)" xlink:href="#ao"/></g><g id="ad"><use transform="matrix(0.05,0,0,0.05,0,0)" xlink:href="#aF"/><use transform="matrix(0.05,0,0,0.05,9,0)" xlink:href="#aA"/><use transform="matrix(0.05,0,0,0.05,19,0)" xlink:href="#aq"/><use transform="matrix(0.05,0,0,0.05,28,0)" xlink:href="#ar"/><use transform="matrix(0.05,0,0,0.05,33,0)" xlink:href="#an"/><use transform="matrix(0.05,0,0,0.05,43,0)" xlink:href="#am"/><use transform="matrix(0.05,0,0,0.05,48.95,0)" xlink:href="#aI"/><use transform="matrix(0.05,0,0,0.05,58.95,0)" xlink:href="#as"/><use transform="matrix(0.05,0,0,0.05,62.900000000000006,0)" xlink:href="#aK"/><use transform="matrix(0.05,0,0,0.05,77.85000000000001,0)" xlink:href="#aJ"/><use transform="matrix(0.05,0,0,0.05,87.85000000000001,0)" xlink:href="#aL"/><use transform="matrix(0.05,0,0,0.05,97.85000000000001,0)" xlink:href="#aA"/><use transform="matrix(0.05,0,0,0.05,107.85000000000001,0)" xlink:href="#aI"/><use transform="matrix(0.05,0,0,0.05,117.85000000000001,0)" xlink:href="#ao"/><use transform="matrix(0.05,0,0,0.05,127.85000000000001,0)" xlink:href="#aJ"/><use transform="matrix(0.05,0,0,0.05,137.85000000000002,0)" xlink:href="#ar"/><use transform="matrix(0.05,0,0,0.05,142.85000000000002,0)" xlink:href="#aJ"/><use transform="matrix(0.05,0,0,0.05,152.85000000000002,0)" xlink:href="#aM"/><use transform="matrix(0.05,0,0,0.05,161.85000000000002,0)" xlink:href="#aA"/><use transform="matrix(0.05,0,0,0.05,171.85000000000002,0)" xlink:href="#ar"/></g><g id="ae"><use transform="matrix(0.05,0,0,0.05,0,0)" xlink:href="#ao"/><use transform="matrix(0.05,0,0,0.05,10,0)" xlink:href="#aJ"/><use transform="matrix(0.05,0,0,0.05,20,0)" xlink:href="#ar"/><use transform="matrix(0.05,0,0,0.05,25,0)" xlink:href="#aJ"/><use transform="matrix(0.05,0,0,0.05,35,0)" xlink:href="#aM"/><use transform="matrix(0.05,0,0,0.05,44,0)" xlink:href="#aA"/><use transform="matrix(0.05,0,0,0.05,54,0)" xlink:href="#ar"/><use transform="matrix(0.05,0,0,0.05,59,0)" xlink:href="#aI"/><use transform="matrix(0.05,0,0,0.05,69,0)" xlink:href="#as"/><use transform="matrix(0.05,0,0,0.05,72.95,0)" xlink:href="#ao"/></g><g id="af"><use transform="matrix(0.05,0,0,0.05,0,0)" xlink:href="#aA"/><use transform="matrix(0.05,0,0,0.05,10,0)" xlink:href="#aH"/><use transform="matrix(0.05,0,0,0.05,19,0)" xlink:href="#al"/><use transform="matrix(0.05,0,0,0.05,29,0)" xlink:href="#aA"/><use transform="matrix(0.05,0,0,0.05,39,0)" xlink:href="#am"/><use transform="matrix(0.05,0,0,0.05,44.95,0)" xlink:href="#as"/><use transform="matrix(0.05,0,0,0.05,48.900000000000006,0)" xlink:href="#aK"/><use transform="matrix(0.05,0,0,0.05,63.85,0)" xlink:href="#aA"/><use transform="matrix(0.05,0,0,0.05,73.85000000000001,0)" xlink:href="#aG"/><use transform="matrix(0.05,0,0,0.05,83.85000000000001,0)" xlink:href="#ar"/></g><g id="ag"><use transform="matrix(0.05,0,0,0.05,0,0)" xlink:href="#aL"/><use transform="matrix(0.05,0,0,0.05,10,0)" xlink:href="#as"/><use transform="matrix(0.05,0,0,0.05,13.949999999999998,0)" xlink:href="#ar"/><use transform="matrix(0.05,0,0,0.05,18.95,0)" xlink:href="#aI"/><use transform="matrix(0.05,0,0,0.05,28.950000000000003,0)" xlink:href="#aq"/><use transform="matrix(0.05,0,0,0.05,37.95,0)" xlink:href="#an"/><use transform="matrix(0.05,0,0,0.05,47.95,0)" xlink:href="#aK"/><use transform="matrix(0.05,0,0,0.05,62.900000000000006,0)" xlink:href="#aK"/><use transform="matrix(0.05,0,0,0.05,77.85000000000001,0)" xlink:href="#as"/><use transform="matrix(0.05,0,0,0.05,81.80000000000001,0)" xlink:href="#ar"/></g><g id="ah"><use transform="matrix(0.05,0,0,0.05,0,0)" xlink:href="#aK"/><use transform="matrix(0.05,0,0,0.05,14.950000000000001,0)" xlink:href="#an"/><use transform="matrix(0.05,0,0,0.05,24.950000000000003,0)" xlink:href="#ao"/><use transform="matrix(0.05,0,0,0.05,34.95,0)" xlink:href="#aA"/><use transform="matrix(0.05,0,0,0.05,44.95,0)" xlink:href="#aE"/></g><g id="ai"><use transform="matrix(0.05,0,0,0.05,0,0)" xlink:href="#aA"/><use transform="matrix(0.05,0,0,0.05,10,0)" xlink:href="#aH"/><use transform="matrix(0.05,0,0,0.05,19,0)" xlink:href="#al"/><use transform="matrix(0.05,0,0,0.05,29,0)" xlink:href="#aA"/><use transform="matrix(0.05,0,0,0.05,39,0)" xlink:href="#am"/><use transform="matrix(0.05,0,0,0.05,44.95,0)" xlink:href="#as"/><use transform="matrix(0.05,0,0,0.05,48.900000000000006,0)" xlink:href="#aK"/><use transform="matrix(0.05,0,0,0.05,63.85,0)" xlink:href="#aA"/><use transform="matrix(0.05,0,0,0.05,73.85000000000001,0)" xlink:href="#aG"/><use transform="matrix(0.05,0,0,0.05,83.85000000000001,0)" xlink:href="#ar"/><use transform="matrix(0.05,0,0,0.05,88.85000000000001,0)" xlink:href="#aI"/><use transform="matrix(0.05,0,0,0.05,98.85000000000001,0)" xlink:href="#as"/><use transform="matrix(0.05,0,0,0.05,102.80000000000001,0)" xlink:href="#ao"/></g><g id="aj"><use transform="matrix(0.05,0,0,0.05,0,0)" xlink:href="#al"/><use transform="matrix(0.05,0,0,0.05,10,0)" xlink:href="#aJ"/><use transform="matrix(0.05,0,0,0.05,20,0)" xlink:href="#ar"/><use transform="matrix(0.05,0,0,0.05,25,0)" xlink:href="#aN"/><use transform="matrix(0.05,0,0,0.05,35,0)" xlink:href="#aM"/></g><g id="ak"><use transform="matrix(0.05,0,0,0.05,0,0)" xlink:href="#aU"/><use transform="matrix(0.05,0,0,0.05,5,0)" xlink:href="#as"/><use transform="matrix(0.05,0,0,0.05,8.95,0)" xlink:href="#aA"/><use transform="matrix(0.05,0,0,0.05,18.95,0)" xlink:href="#aE"/><use transform="matrix(0.05,0,0,0.05,22.9,0)" xlink:href="#ao"/><use transform="matrix(0.05,0,0,0.05,32.9,0)" xlink:href="#aM"/></g></defs></g></svg>